<?xml version="1.0" standalone="no"?>
<!DOCTYPE svg PUBLIC "-//W3C//DTD SVG 20010904//EN"
 "http://www.w3.org/TR/2001/REC-SVG-20010904/DTD/svg10.dtd">
<svg version="1.0" xmlns="http://www.w3.org/2000/svg"
 width="444.000000pt" height="444.000000pt" viewBox="0 0 444.000000 444.000000"
 preserveAspectRatio="xMidYMid meet">
<metadata>
Created by potrace 1.14, written by Peter Selinger 2001-2017
</metadata>
<g transform="translate(0.000000,444.000000) scale(0.100000,-0.100000)"
fill="#000000" stroke="none">
<path d="M415 4415 c2 -14 -1 -27 -6 -31 -5 -3 -7 -10 -4 -15 4 -5 1 -9 -4 -9
-6 0 -11 -7 -11 -15 0 -8 5 -15 10 -15 24 0 7 -20 -17 -21 l-28 -1 25 -8 25
-8 -25 -1 c-20 -1 -22 -3 -10 -11 13 -9 13 -10 0 -11 -8 0 -4 -5 10 -9 17 -5
19 -8 8 -9 -10 -1 -18 -5 -18 -11 0 -5 8 -10 18 -11 11 -1 8 -4 -8 -8 -14 -4
-26 -4 -28 1 -6 13 -22 9 -19 -4 1 -10 -19 -13 -74 -14 -116 -1 -281 -46 -257
-69 3 -4 20 1 38 10 35 18 261 49 291 40 10 -4 24 -15 30 -26 10 -19 9 -19
-10 -9 -13 7 -21 7 -21 1 0 -6 9 -15 21 -21 16 -9 18 -14 9 -25 -7 -8 -9 -18
-6 -23 3 -6 -3 -12 -13 -15 -10 -2 -20 -16 -23 -30 -3 -15 -1 -24 3 -21 5 3 9
-2 9 -10 0 -9 -5 -16 -11 -16 -5 0 -8 -4 -4 -9 3 -5 1 -12 -5 -16 -6 -4 -8
-10 -5 -15 3 -5 1 -20 -5 -34 -7 -19 -6 -26 3 -26 8 0 7 -4 -3 -11 -12 -8 -10
-9 8 -4 26 8 30 -9 5 -24 -16 -10 -16 -11 5 -17 26 -7 28 -17 7 -38 -8 -8 -15
-19 -15 -25 0 -6 -11 -13 -25 -17 -28 -7 -32 -19 -10 -28 19 -7 19 -30 0 -46
-9 -8 -12 -22 -8 -41 4 -20 2 -29 -8 -29 -10 0 -10 -3 -1 -12 15 -15 16 -48 2
-48 -5 0 -10 -8 -10 -17 0 -19 -18 -80 -32 -107 -7 -13 -6 -21 2 -26 8 -5 7
-9 -5 -14 -24 -9 -53 -8 -57 3 -1 4 -38 11 -81 14 -68 5 -77 3 -77 -11 0 -14
11 -17 63 -17 34 -1 84 -4 110 -9 41 -6 47 -10 42 -27 -4 -11 -2 -19 4 -19 6
0 11 -7 11 -15 0 -8 -4 -15 -8 -15 -8 0 -21 -46 -43 -157 -6 -35 -16 -63 -21
-63 -5 0 -7 -9 -3 -19 3 -11 1 -22 -5 -26 -6 -3 -10 3 -10 17 0 18 -2 20 -10
8 -5 -8 -10 -25 -10 -36 0 -12 -7 -27 -15 -34 -22 -19 -18 -30 11 -30 21 0 25
-3 19 -17 -4 -10 -10 -28 -12 -40 -3 -13 -13 -23 -22 -23 -14 0 -14 2 -1 10
12 7 12 12 3 21 -10 10 -17 9 -33 -6 -23 -21 -26 -35 -6 -35 8 0 16 -7 20 -15
6 -17 -9 -21 -19 -5 -9 15 -58 -39 -51 -56 3 -8 13 -14 21 -14 9 0 13 5 9 11
-7 12 15 31 28 23 15 -9 8 -21 -32 -63 l-40 -41 0 -93 c0 -92 0 -92 17 -59 9
18 28 46 42 61 14 15 26 34 26 42 0 8 10 15 22 17 13 2 23 7 23 12 0 8 10 9
88 10 23 1 42 5 42 11 0 5 -16 9 -36 9 -31 0 -35 2 -24 15 18 22 1 18 -48 -10
-37 -21 -43 -22 -40 -8 2 10 14 23 28 30 59 28 117 51 150 56 l35 6 -45 -24
c-25 -13 -39 -24 -32 -25 7 0 26 7 42 15 16 8 39 15 52 15 13 0 43 0 67 0 49
0 117 -29 113 -48 -1 -7 8 -12 20 -12 21 1 21 2 5 11 -14 8 -16 14 -6 25 6 8
10 16 8 18 -6 6 -170 37 -213 40 -21 2 -42 9 -46 16 -9 14 -8 49 2 65 3 6 8
26 12 46 8 45 79 129 109 129 48 0 136 -24 141 -39 3 -9 8 -21 11 -27 3 -7 -1
-19 -10 -28 -13 -12 -14 -17 -3 -20 83 -22 108 -28 136 -33 17 -3 32 -10 32
-16 0 -7 4 -7 12 1 7 7 23 12 37 13 24 1 -58 24 -122 34 -34 6 -57 27 -57 53
0 34 -55 65 -134 75 -17 2 -31 8 -33 14 -4 12 89 122 114 136 8 5 31 7 51 4
36 -6 36 -5 9 6 -15 6 -26 15 -25 19 7 20 133 138 147 138 13 0 13 -2 2 -9
-10 -6 -10 -10 -1 -16 6 -4 9 -17 6 -29 -7 -28 9 -97 25 -107 8 -5 12 -24 10
-53 -1 -28 3 -54 13 -67 8 -12 12 -28 9 -36 -3 -8 3 -24 14 -36 22 -25 43 -71
43 -94 0 -9 -8 -22 -17 -29 -17 -12 -16 -13 4 -14 12 0 30 -12 41 -27 18 -26
18 -29 3 -44 -9 -8 -29 -14 -46 -14 -64 3 -241 7 -259 6 -22 -1 -15 -13 12
-19 9 -3 46 -7 82 -9 41 -3 69 -10 76 -19 10 -13 12 -13 18 1 9 23 82 17 130
-11 15 -9 16 -15 7 -33 -7 -11 -18 -21 -26 -21 -8 0 -15 -5 -15 -11 0 -6 7 -8
15 -5 8 3 22 9 30 12 8 3 15 1 15 -5 0 -6 6 -11 13 -11 8 0 19 -11 26 -24 12
-21 18 -23 59 -18 26 2 70 10 97 17 34 9 54 9 63 3 8 -7 12 -7 12 1 0 14 67
14 76 0 9 -15 -11 -26 -58 -34 -23 -4 -38 -12 -38 -21 0 -8 -9 -14 -20 -14
-17 0 -19 -5 -15 -46 2 -26 1 -44 -2 -40 -3 3 -16 -6 -29 -21 -17 -20 -20 -29
-11 -35 6 -4 15 -4 20 1 11 11 76 -21 77 -37 0 -7 12 -18 28 -25 15 -6 30 -16
33 -21 4 -5 17 -6 29 -3 13 3 23 0 26 -8 7 -16 69 -11 91 6 10 9 13 8 13 -4 0
-8 6 -15 13 -14 6 0 26 -1 42 -2 30 -3 30 -3 5 -11 -14 -4 -19 -8 -12 -9 6 -1
12 -8 12 -16 0 -8 7 -15 15 -15 12 0 13 -4 6 -19 -9 -15 -7 -20 9 -24 11 -3
20 -1 20 4 0 5 -5 9 -12 9 -6 0 -9 3 -6 6 3 3 15 0 26 -7 16 -10 29 -10 59 -1
33 10 40 10 51 -5 11 -15 12 -15 12 3 0 14 2 16 9 5 7 -11 11 -10 20 5 6 11
11 15 11 9 0 -5 4 -3 10 5 5 8 12 11 16 7 4 -3 1 -13 -6 -22 -7 -8 -8 -15 -3
-15 5 0 15 9 22 19 8 11 20 17 27 14 6 -2 15 0 18 6 4 6 -9 9 -33 8 -40 -1
-68 12 -43 20 6 3 12 11 12 19 0 8 4 14 9 14 5 0 7 -9 4 -20 -6 -24 15 -27 24
-4 4 12 7 13 14 3 4 -8 11 -10 15 -6 4 3 2 13 -5 21 -8 9 -8 15 -1 18 6 2 11
21 12 43 0 22 5 46 11 53 8 10 7 16 -2 21 -6 4 -11 12 -9 17 5 14 -42 84 -57
84 -7 0 -18 7 -26 16 -15 19 -19 64 -4 64 6 0 7 3 0 8 -5 4 -16 15 -23 24 -12
14 -10 16 10 10 21 -5 22 -4 9 12 -8 9 -20 15 -27 12 -7 -3 -16 -1 -18 3 -3 5
-19 7 -35 5 -19 -2 -33 2 -38 11 -5 8 -20 15 -33 15 -62 -1 -141 -8 -147 -13
-3 -4 -15 -1 -26 4 -13 8 -22 8 -26 1 -4 -7 -20 -8 -45 -2 -21 5 -56 6 -77 4
-22 -3 -39 -1 -39 4 0 6 -13 12 -29 14 -17 2 -28 1 -25 -3 2 -4 0 -10 -6 -14
-5 -3 -10 -1 -10 5 0 7 -6 10 -14 7 -9 -4 -17 1 -19 11 -4 16 -5 15 -6 0 -1
-20 -16 -24 -26 -8 -4 7 -12 7 -25 0 -25 -13 -28 -13 -33 8 -3 13 -6 10 -11
-10 -10 -36 -34 -44 -45 -15 -16 42 -40 132 -45 167 -2 19 -10 49 -16 65 -7
17 -14 39 -16 50 -2 11 -12 61 -22 112 -13 64 -16 95 -8 103 7 7 6 10 -3 10
-7 0 -11 6 -8 13 2 6 0 24 -4 40 -5 16 -4 25 1 22 5 -3 9 11 8 32 -1 21 2 74
6 118 5 44 10 100 12 125 7 89 29 191 44 200 13 8 13 11 1 19 -11 7 -10 11 7
20 11 6 30 11 41 11 11 0 22 4 25 9 7 11 57 2 77 -15 20 -18 126 -38 147 -28
10 4 22 8 27 9 93 13 106 17 88 31 -17 13 -17 14 0 8 11 -4 30 2 48 15 19 14
29 17 29 9 0 -9 3 -8 10 2 8 13 10 12 10 -2 0 -10 4 -18 10 -18 5 0 7 7 4 15
-4 9 0 15 10 15 9 0 16 -5 16 -11 0 -15 26 -39 34 -32 11 11 6 23 -9 23 -8 0
-15 7 -15 15 0 11 7 14 23 10 15 -4 30 1 45 15 17 16 22 17 22 6 0 -10 6 -13
15 -10 8 4 15 1 15 -6 0 -8 6 -9 18 -5 9 4 25 7 35 7 9 0 17 6 17 14 0 25 18
15 30 -18 l12 -33 8 25 c5 14 8 19 9 11 1 -11 4 -11 17 0 14 11 18 11 29 -4
12 -17 13 -17 19 0 15 41 37 68 60 74 17 5 26 2 30 -8 4 -9 -1 -17 -14 -20
-31 -8 -24 -20 14 -25 19 -2 32 0 30 4 -3 4 2 8 10 8 9 0 15 -6 13 -12 -1 -8
12 -13 36 -14 28 -1 37 3 37 15 0 13 2 13 9 2 6 -10 20 -12 44 -8 22 3 37 1
39 -5 2 -6 11 -4 21 6 13 13 21 15 37 6 13 -7 20 -7 20 0 0 5 5 10 11 10 6 0
40 14 76 31 42 20 68 27 72 21 4 -7 12 -7 20 -3 7 5 10 14 7 20 -5 8 0 8 19 1
33 -13 38 -13 29 1 -4 8 0 9 15 4 14 -4 28 0 42 14 12 11 27 17 35 14 8 -3 14
0 14 6 0 6 4 11 10 11 5 0 7 -7 4 -15 -5 -11 -2 -13 10 -9 9 3 16 12 16 20 0
8 7 14 15 14 8 0 15 -5 15 -11 0 -5 5 -7 10 -4 6 3 10 1 10 -5 0 -8 10 -9 29
-5 20 4 34 1 45 -10 9 -9 16 -12 16 -6 0 5 -7 17 -16 25 -8 9 -12 21 -8 27 9
15 34 -17 35 -45 0 -15 2 -17 6 -6 12 33 25 41 38 23 15 -20 47 -11 39 12 -5
11 -10 13 -19 5 -9 -8 -14 -6 -19 5 -3 9 -2 13 4 10 6 -3 10 -2 10 3 0 6 9 8
21 5 18 -5 20 -11 16 -38 -5 -31 -4 -33 34 -39 49 -8 104 -56 64 -56 -8 0 -15
-4 -15 -10 0 -18 40 -11 41 8 0 14 2 14 8 -3 5 -11 6 -24 4 -28 -3 -5 4 -11
16 -14 21 -5 30 -23 11 -23 -5 0 -10 -10 -10 -22 0 -14 3 -18 8 -12 4 6 29 14
56 18 38 6 47 5 44 -6 -3 -7 -16 -14 -29 -15 -13 0 -29 -1 -35 -2 -6 -1 -10
-11 -8 -23 1 -13 3 -27 3 -32 1 -4 8 -5 17 -2 12 5 15 2 10 -10 -3 -9 -8 -26
-10 -37 -2 -12 -1 -16 1 -9 3 6 9 12 14 12 16 0 10 -36 -11 -60 -11 -13 -20
-28 -19 -34 0 -6 3 -6 6 2 2 6 17 11 31 11 17 -1 21 -3 10 -6 -24 -6 -23 -19
3 -36 l20 -15 -23 -16 -22 -16 22 0 c12 0 22 -4 22 -10 0 -5 -7 -10 -17 -10
-9 0 -13 -3 -10 -7 4 -3 2 -12 -4 -19 -7 -8 -7 -14 1 -19 16 -10 12 -25 -7
-25 -15 0 -16 -2 -3 -9 8 -6 17 -8 21 -5 4 2 10 0 14 -6 3 -5 -2 -10 -12 -11
-11 0 -13 -3 -5 -6 8 -3 10 -9 3 -17 -6 -7 -4 -18 5 -30 10 -14 14 -16 14 -5
0 12 2 12 9 -1 6 -8 7 -18 4 -23 -3 -5 4 -4 16 3 28 14 61 4 61 -20 0 -10 5
-22 10 -25 6 -3 10 -1 10 5 0 6 13 2 29 -9 15 -11 31 -18 34 -15 3 3 8 -4 12
-15 3 -12 11 -19 16 -16 5 3 6 0 3 -8 -3 -8 5 -21 18 -29 13 -9 32 -34 43 -57
11 -22 23 -41 26 -41 3 0 6 -14 7 -31 0 -17 7 -38 14 -46 7 -9 12 -25 10 -36
-2 -12 1 -17 7 -13 6 4 12 -1 13 -11 0 -10 2 -23 2 -30 1 -6 5 -15 9 -19 4 -4
7 -22 7 -41 0 -24 4 -33 16 -33 13 0 15 -7 11 -29 -4 -18 -1 -33 7 -40 7 -6
13 -30 14 -53 1 -23 5 -51 8 -61 4 -14 3 -17 -6 -12 -12 7 -10 -7 8 -54 3 -8
1 -12 -5 -8 -6 4 -10 -12 -10 -41 0 -83 -2 -92 -19 -92 -12 0 -14 -4 -7 -12
14 -18 24 -90 12 -83 -5 4 -9 2 -9 -4 0 -5 6 -11 13 -13 7 -3 12 -23 12 -51 0
-26 3 -47 8 -47 4 0 2 -9 -5 -19 -9 -15 -9 -25 0 -43 20 -41 19 -78 -4 -78 -8
0 -12 -5 -9 -10 4 -6 11 -8 16 -4 9 5 8 -13 -7 -79 -3 -15 -10 -27 -14 -27 -5
0 -7 -6 -4 -14 3 -7 -2 -16 -11 -20 -12 -4 -15 -13 -11 -31 5 -19 2 -25 -10
-25 -15 0 -15 -2 0 -25 21 -32 20 -52 -3 -65 -25 -13 -42 -13 -18 1 19 11 23
39 6 39 -6 0 -9 -7 -5 -15 4 -10 -1 -15 -16 -15 -12 0 -18 -3 -15 -6 3 -4 2
-15 -3 -25 -8 -14 -6 -20 7 -28 17 -9 16 -11 -4 -30 -26 -25 -52 -29 -33 -6 7
9 10 18 7 21 -3 3 -11 -4 -17 -16 -8 -16 -9 -25 -2 -29 7 -4 8 -12 2 -21 -9
-13 -10 -13 -10 0 0 11 -3 11 -11 -3 -10 -18 -12 -18 -31 3 -14 15 -17 24 -9
34 6 7 8 16 4 20 -4 4 0 4 9 1 12 -5 20 5 33 39 10 25 24 46 31 46 15 0 19 31
7 44 -12 11 -14 56 -3 56 5 0 10 9 10 20 0 12 -7 20 -16 20 -14 0 -16 -9 -12
-65 l6 -64 -30 15 c-29 15 -29 40 1 30 9 -4 6 2 -8 14 -21 18 -23 26 -18 68 4
31 3 40 -3 27 -5 -11 -9 -29 -9 -40 -2 -33 -17 -47 -52 -49 -33 -2 -34 -3 -32
-44 1 -23 -2 -41 -7 -39 -5 1 -18 -15 -28 -35 -22 -41 -21 -43 10 -27 15 8 19
8 13 0 -4 -7 -2 -18 5 -26 7 -9 8 -15 0 -20 -5 -3 -10 1 -10 9 0 11 -9 16 -27
15 -17 -1 -21 -3 -10 -6 22 -6 22 -11 -5 -32 l-22 -18 27 -27 c23 -23 25 -27
7 -21 -21 7 -29 -10 -7 -18 6 -2 9 -8 5 -12 -11 -12 -39 22 -32 39 3 9 2 16
-4 16 -19 0 -22 -33 -5 -53 18 -19 17 -20 -11 -15 -18 4 -35 1 -42 -7 -11 -11
-7 -16 19 -29 37 -17 81 -11 73 10 -10 25 21 15 32 -11 6 -14 16 -25 22 -25 5
0 10 -4 10 -9 0 -5 -9 -7 -20 -4 -11 3 -18 9 -15 13 11 17 -14 19 -44 4 -35
-17 -61 -54 -38 -54 7 0 18 5 25 12 8 8 12 8 12 1 0 -14 -29 -27 -56 -24 -12
1 -29 -5 -38 -14 -15 -15 -16 -15 -16 3 0 15 -5 19 -21 15 -14 -4 -18 -11 -13
-22 4 -9 6 -24 6 -35 -1 -13 4 -17 18 -13 10 3 21 -1 24 -9 3 -8 0 -11 -8 -8
-8 3 -17 1 -21 -5 -3 -6 5 -15 19 -21 35 -13 33 -18 -5 -12 -24 4 -30 2 -24
-8 8 -12 -7 -12 -54 1 -7 2 -16 -2 -18 -10 -4 -9 0 -11 16 -6 15 5 21 2 21 -9
0 -11 -9 -16 -27 -16 -21 0 -24 -3 -13 -10 15 -9 7 -25 -13 -25 -7 0 -11 -13
-10 -29 2 -21 -2 -26 -13 -22 -9 3 -25 6 -36 6 -17 0 -20 4 -14 30 3 17 2 30
-3 30 -5 0 -11 -18 -15 -40 -4 -25 -14 -43 -27 -50 -19 -10 -20 -10 -10 9 14
26 15 26 -14 27 -15 1 -25 -3 -25 -12 0 -20 -38 -17 -42 4 -2 11 -6 13 -11 6
-3 -6 5 -24 18 -38 14 -15 25 -32 25 -39 -1 -17 -25 -47 -39 -47 -7 0 -9 -5
-6 -10 4 -6 11 -8 16 -5 5 4 9 1 9 -4 0 -13 0 -13 -39 0 -18 6 -36 21 -41 33
-9 21 -9 21 -9 -2 -1 -16 6 -26 19 -29 11 -3 20 -10 20 -15 0 -6 -10 -8 -22
-5 -20 6 -20 4 5 -19 25 -23 29 -53 6 -38 -5 3 -7 10 -3 16 3 5 -2 9 -12 8
-11 -1 -30 -1 -44 0 -23 1 -23 2 -5 10 18 8 16 9 -8 9 -20 1 -30 -5 -34 -18
-3 -11 -11 -17 -18 -14 -8 2 -11 11 -8 19 3 8 0 14 -6 14 -6 0 -11 -4 -11 -10
0 -5 -4 -10 -8 -10 -4 0 -8 9 -8 20 0 11 1 20 2 20 2 0 14 -4 28 -10 17 -6 26
-6 26 1 0 5 6 9 13 8 33 -4 57 2 57 16 0 11 -11 15 -40 15 -22 0 -40 4 -40 10
0 5 7 7 15 3 9 -3 22 2 31 13 12 17 13 17 8 2 -4 -13 -1 -18 11 -18 12 0 15 5
11 16 -3 9 -6 20 -6 25 0 6 -4 7 -10 4 -5 -3 -10 -4 -10 -1 0 3 9 10 19 15 16
9 18 8 14 -9 -4 -15 -1 -19 9 -15 10 4 17 -1 21 -14 3 -12 12 -21 21 -21 19 0
21 16 4 24 -10 5 -10 7 0 12 6 3 12 12 12 20 0 10 -6 11 -25 4 -25 -9 -25 -9
-24 38 1 48 3 48 13 -1 9 -37 28 -24 26 17 -3 44 -1 53 8 40 12 -19 77 -22 77
-4 0 10 8 14 23 12 12 -2 22 2 22 7 0 6 6 11 13 11 8 0 13 9 12 22 -1 16 -7
22 -20 20 -10 -2 -14 1 -10 8 4 6 15 8 26 5 15 -5 19 -1 19 14 0 12 6 21 13
21 6 0 1 9 -13 20 l-25 20 33 -6 c20 -4 32 -3 32 4 0 6 -7 9 -16 5 -14 -5 -15
-3 -4 17 8 15 8 20 1 16 -15 -10 -14 7 2 23 10 11 9 13 -5 8 -10 -3 -19 0 -22
10 -5 11 -1 14 11 11 14 -4 18 1 18 23 0 22 -3 25 -14 16 -12 -10 -13 -6 -8
23 5 25 4 31 -3 20 -9 -13 -10 -13 -10 0 -1 10 -10 4 -25 -15 -14 -16 -25 -25
-25 -18 0 6 5 15 10 18 6 3 10 16 10 28 -1 20 -2 20 -13 5 -9 -11 -18 -14 -27
-8 -7 4 -19 6 -27 3 -7 -3 -16 2 -19 11 -3 9 -10 14 -14 11 -5 -3 -16 5 -26
17 -9 13 -14 16 -12 8 4 -11 -2 -15 -21 -15 -14 0 -32 4 -39 9 -9 5 -15 1 -19
-13 -7 -28 -22 -17 -18 14 2 18 -2 25 -16 25 -10 0 -21 -4 -24 -10 -11 -17
-36 -11 -33 7 2 12 -4 19 -19 21 -13 2 -23 8 -23 13 0 6 4 8 8 5 4 -2 14 -1
22 4 12 7 12 13 4 27 -12 19 3 43 26 43 5 0 10 6 10 14 0 8 8 17 18 19 9 2 -1
3 -23 1 -26 -2 -33 0 -21 5 22 9 30 42 13 53 -6 4 3 6 21 6 18 -1 35 2 39 5 3
4 -7 7 -23 8 -16 0 -23 3 -15 6 9 4 0 12 -25 24 -22 10 -33 18 -26 19 6 0 12
5 12 11 0 5 -4 8 -9 5 -5 -3 -12 2 -15 11 -6 15 -8 15 -16 3 -8 -12 -10 -11
-10 6 0 37 -23 55 -82 63 l-56 7 -12 -32 c-15 -36 -56 -55 -72 -32 -7 10 -9
10 -5 -2 3 -11 16 -14 51 -13 34 2 48 -1 52 -12 4 -8 16 -15 29 -15 16 0 25
-7 29 -24 3 -13 9 -32 13 -42 5 -13 3 -15 -7 -9 -9 5 -11 4 -6 -3 4 -7 13 -12
21 -12 23 0 26 -31 7 -62 -11 -16 -23 -31 -28 -31 -5 -1 -8 -4 -7 -7 1 -3 -21
-7 -50 -8 -28 -1 -55 -8 -59 -15 -6 -9 -10 -9 -17 2 -7 11 -10 10 -15 -5 -5
-16 -15 -19 -61 -17 -36 1 -60 -4 -69 -13 -8 -8 -19 -14 -25 -14 -6 0 -12 -4
-12 -10 -1 -5 -2 -14 -3 -18 -2 -14 -33 -41 -40 -35 -3 4 -6 1 -6 -6 0 -7 -6
-18 -13 -25 -11 -11 -22 -10 -63 5 -28 11 -60 28 -72 39 -29 27 -31 26 -27
-20 3 -36 1 -41 -23 -46 -15 -4 -33 -11 -39 -17 -9 -6 -15 -4 -19 7 -5 13 -10
14 -20 5 -7 -6 -18 -8 -23 -5 -5 4 -13 -13 -16 -39 -6 -35 -11 -45 -26 -45
-27 0 -24 -32 6 -60 14 -13 25 -28 25 -34 1 -19 50 -48 68 -40 9 4 23 6 30 5
8 -1 20 3 27 9 11 9 17 3 31 -27 10 -21 35 -55 56 -76 21 -22 38 -43 38 -48 0
-5 6 -9 14 -9 7 0 19 -7 26 -15 7 -8 17 -15 22 -15 6 0 8 7 4 15 -3 8 -3 15 0
15 3 0 10 -14 16 -30 7 -22 18 -33 39 -37 27 -5 41 -23 19 -23 -17 0 -11 -25
10 -38 21 -13 28 -42 10 -42 -19 0 -10 -29 11 -35 15 -5 17 -10 9 -20 -8 -9
-8 -15 0 -20 5 -3 10 -12 10 -18 0 -7 -5 -4 -11 6 -5 9 -18 17 -27 17 -13 0
-14 -2 -4 -8 9 -6 6 -12 -13 -20 -21 -10 -25 -9 -25 6 -1 16 -2 16 -14 -1 -12
-15 -18 -16 -35 -7 -12 6 -21 15 -21 20 0 6 -7 10 -15 10 -8 0 -15 4 -15 9 0
4 -11 20 -25 35 -13 14 -21 26 -17 26 4 0 -4 10 -18 23 -14 12 -25 29 -25 37
0 8 -7 14 -16 12 -11 -1 -16 4 -15 15 0 11 -5 17 -16 17 -11 -1 -18 5 -18 16
0 11 -10 20 -25 24 -14 4 -25 11 -25 16 0 6 -7 10 -15 10 -8 0 -15 5 -15 10 0
6 -4 10 -10 10 -12 0 -188 174 -213 209 -20 30 -24 27 -33 -28 -7 -43 -6 -44
16 -38 37 10 51 -8 34 -41 -12 -24 -12 -28 2 -38 8 -7 24 -10 34 -7 15 4 20 0
20 -15 0 -25 27 -48 54 -45 15 1 16 0 4 -3 -26 -8 -22 -23 7 -34 35 -13 31
-41 -10 -74 -22 -18 -35 -37 -35 -52 0 -23 -18 -29 -31 -11 -3 4 -16 -1 -30
-11 -13 -10 -76 -31 -139 -47 -104 -25 -229 -67 -287 -97 -46 -23 -14 -17 68
13 46 17 91 32 99 34 8 2 29 9 45 15 28 12 163 49 176 50 8 0 4 -124 -5 -138
-8 -14 96 -122 117 -122 14 0 17 -12 17 -72 0 -39 5 -98 12 -130 12 -57 11
-59 -12 -81 -42 -38 -89 -113 -146 -232 -46 -98 -61 -120 -105 -155 -28 -22
-58 -40 -67 -40 -10 0 -25 -12 -35 -25 -18 -25 -18 -25 9 -25 15 0 33 8 40 18
15 20 43 8 59 -26 l10 -22 1552 0 1553 0 0 1064 c0 933 -2 1065 -15 1076 -13
11 -15 8 -15 -14 0 -14 -3 -26 -8 -26 -11 0 -56 32 -65 47 -11 19 -67 16 -89
-4 -16 -14 -23 -15 -38 -5 -29 18 -58 15 -65 -7 -4 -13 -19 -20 -53 -25 -98
-12 -97 -12 -100 12 -4 23 12 31 22 10 5 -10 7 -10 12 0 3 6 13 12 21 12 10 0
13 6 9 16 -8 22 11 54 29 48 19 -8 19 3 0 22 -24 25 -74 14 -93 -21 -9 -16
-25 -38 -35 -49 -24 -27 -21 -45 8 -52 33 -8 31 -19 -7 -38 -45 -23 -108 -32
-108 -16 0 6 -6 26 -13 43 -8 18 -22 58 -32 90 -14 44 -31 70 -66 104 -49 47
-55 76 -18 86 23 6 26 47 4 47 -12 0 -13 4 -5 19 5 11 10 29 10 40 0 12 5 21
11 21 7 0 8 7 4 18 -5 9 -9 28 -11 42 -1 14 -3 28 -3 33 -1 11 -31 8 -31 -3 0
-19 -16 -10 -34 21 -12 20 -21 27 -26 20 -4 -7 -7 3 -8 21 0 18 5 36 11 40 8
5 6 8 -5 8 -10 0 -18 5 -18 10 0 6 7 10 15 10 8 0 15 5 15 10 0 6 -4 10 -10
10 -13 0 -13 73 -1 85 5 6 11 21 13 35 2 17 15 31 40 45 21 11 38 23 38 27 0
14 33 47 42 42 4 -3 8 6 8 20 0 14 4 26 10 26 5 0 7 13 3 31 -5 25 -3 31 8 27
8 -3 14 -10 14 -16 0 -5 3 -13 7 -17 14 -15 22 49 23 200 1 88 2 166 3 173 3
19 59 15 71 -5 8 -16 11 -15 20 10 16 41 14 47 -13 47 -50 0 -38 32 17 45 15
4 27 13 27 20 0 11 48 35 71 35 4 0 4 -13 -1 -30 -5 -18 -5 -32 1 -35 15 -10
10 -33 -7 -31 -31 2 -26 -22 5 -29 23 -5 36 -2 48 11 10 10 18 21 18 26 0 4 3
8 8 8 4 0 12 0 18 0 8 0 9 -4 0 -13 -6 -8 -8 -17 -5 -20 4 -4 -1 -18 -10 -31
-17 -27 -6 -45 14 -21 17 20 27 19 41 -7 10 -18 9 -20 -5 -15 -10 4 -16 1 -16
-8 0 -8 7 -15 16 -15 10 0 14 -6 10 -15 -4 -10 1 -15 14 -15 34 0 35 1 33 17
-1 9 5 22 13 30 18 19 18 34 -1 27 -9 -4 -15 0 -15 9 0 24 24 27 51 6 19 -15
21 -21 10 -28 -7 -5 -11 -13 -7 -19 4 -6 -2 -25 -13 -43 -15 -24 -17 -36 -9
-46 16 -20 38 -16 38 7 0 11 -6 20 -12 20 -9 0 -8 3 2 9 8 6 17 8 21 5 4 -2
10 5 14 16 7 22 20 26 30 10 4 -6 11 -8 16 -5 5 4 9 -1 9 -10 0 -8 -7 -18 -16
-22 -12 -5 -13 -7 -2 -14 10 -6 10 -11 0 -21 -14 -14 -16 -32 -2 -23 6 3 10
-3 10 -14 0 -12 -7 -21 -15 -21 -8 0 -15 -7 -15 -15 0 -8 5 -15 10 -15 12 0
13 -36 1 -58 -6 -12 -4 -24 6 -37 11 -14 17 -16 20 -7 3 6 11 12 18 12 7 0 16
12 20 27 3 15 12 31 18 35 8 5 13 70 15 212 4 203 4 205 -17 199 -15 -4 -21
-1 -21 11 0 21 -16 20 -30 -1 -8 -14 -9 -9 -4 20 6 34 4 38 -12 35 -17 -3 -19
3 -15 66 2 51 0 67 -9 61 -6 -4 -17 1 -25 11 -7 11 -19 19 -26 19 -7 0 -14 6
-16 13 -3 6 2 12 11 12 9 0 16 7 16 15 0 8 9 22 19 32 22 21 22 62 0 90 -11
15 -10 15 9 -1 12 -11 22 -17 23 -15 0 2 2 12 4 22 2 11 6 21 8 24 3 2 -3 13
-14 24 -11 11 -17 24 -14 29 4 6 -1 10 -9 10 -9 0 -16 -5 -16 -11 0 -5 -4 -7
-10 -4 -6 4 -7 -1 -3 -12 3 -10 2 -15 -2 -10 -5 4 -18 0 -31 -8 -20 -13 -23
-12 -28 1 -11 30 -6 61 15 88 22 28 59 35 59 12 0 -8 14 -25 31 -37 23 -16 28
-24 17 -30 -7 -5 -8 -9 -3 -9 21 0 33 16 32 40 -1 14 2 37 6 53 7 26 6 27 -19
21 -19 -5 -25 -4 -20 5 4 6 18 11 32 11 25 0 33 15 11 23 -8 3 -6 10 7 26 11
12 21 32 23 44 2 12 8 26 13 31 6 6 10 43 10 83 l0 73 -104 0 -104 0 -15 -39
c-16 -38 -15 -129 0 -154 4 -6 6 -26 5 -44 -2 -18 2 -33 8 -33 13 0 13 -23 -1
-37 -14 -14 -49 -5 -49 12 0 8 -8 11 -20 8 -14 -4 -20 0 -20 11 0 12 -7 16
-21 14 -12 -2 -25 4 -29 12 -17 33 -60 151 -60 164 0 8 -8 16 -18 19 -11 2
-22 17 -25 36 -5 25 -11 31 -32 31 -14 0 -25 -5 -25 -11 0 -5 4 -7 10 -4 6 3
10 -3 10 -14 0 -12 5 -21 10 -21 14 0 13 -27 -2 -36 -6 -4 -8 -3 -4 4 3 6 1
14 -5 18 -9 5 -10 0 -6 -17 4 -13 7 -30 7 -38 0 -10 3 -11 14 -2 7 6 20 9 28
6 20 -8 81 -191 79 -235 -1 -19 -3 -42 -3 -50 -1 -8 -7 -26 -15 -40 -11 -21
-11 -27 2 -36 8 -6 15 -18 15 -27 0 -9 9 -22 20 -30 17 -12 19 -19 11 -40 -11
-29 -4 -69 15 -80 9 -5 11 -13 5 -25 -12 -23 -28 -65 -29 -75 -1 -5 -13 -17
-27 -29 -16 -13 -24 -26 -20 -37 4 -14 -4 -21 -35 -31 -42 -14 -62 -8 -42 12
7 7 12 21 12 32 0 16 -6 13 -36 -18 -20 -21 -42 -35 -50 -32 -7 3 -16 1 -19
-4 -4 -6 -19 -10 -36 -10 -16 0 -29 -5 -29 -11 0 -5 4 -8 8 -5 5 3 8 -8 7 -25
-2 -34 -19 -57 -29 -40 -4 6 -20 11 -37 11 -16 0 -29 1 -29 3 0 1 4 16 9 33 8
28 6 33 -14 42 -28 13 -40 78 -17 91 12 7 12 9 0 13 -11 5 -12 20 -7 74 6 61
4 71 -13 87 -11 9 -27 17 -35 17 -11 0 -14 6 -9 23 3 12 6 33 7 47 1 23 2 21
18 -12 17 -36 18 -37 34 -17 18 20 22 39 9 39 -4 0 -14 21 -21 48 -8 26 -25
68 -37 94 -13 26 -24 55 -24 65 0 9 -9 26 -19 37 -24 25 -38 76 -22 76 6 0 11
5 11 10 0 6 -6 10 -14 10 -8 0 -23 14 -33 30 -9 17 -20 30 -24 30 -4 0 -11 15
-15 33 -4 17 -9 35 -10 40 -1 4 -2 12 -3 17 -1 6 -47 10 -118 10 -64 0 -113
-3 -110 -7 8 -8 -32 -53 -46 -53 -5 0 -16 -8 -23 -17 -17 -25 -28 -10 -26 37
l2 40 -549 0 c-492 0 -549 -2 -555 -16 -3 -9 -4 -20 -1 -24 12 -19 -19 -21
-56 -4 -25 11 -38 22 -35 31 5 11 -96 13 -587 11 l-592 -3 -7 -59 c-8 -65 -22
-89 -48 -81 -11 3 -20 -1 -24 -10 -3 -8 -15 -15 -27 -15 -18 0 -19 2 -9 15 10
12 10 18 1 29 -10 12 -8 17 7 25 21 11 35 61 26 86 -8 20 -60 20 -68 0 -3 -9
1 -18 9 -20 51 -16 49 -14 30 -35 -10 -11 -24 -16 -33 -13 -10 4 -14 3 -10 -2
4 -4 3 -14 -3 -21 -7 -8 -7 -14 1 -19 16 -10 12 -62 -5 -69 -22 -8 -18 -25 8
-36 12 -5 16 -9 8 -9 -9 -1 -12 -9 -8 -30 3 -15 1 -33 -5 -39 -17 -17 -3 -25
21 -12 19 9 25 34 21 85 -2 14 35 63 42 59 5 -3 16 0 25 8 15 12 15 11 3 -12
-7 -14 -24 -40 -38 -58 -23 -30 -24 -34 -8 -51 9 -9 16 -22 16 -27 0 -5 -5 -2
-10 6 -8 13 -10 13 -10 -2 0 -9 5 -20 10 -23 17 -11 11 -37 -10 -42 -11 -3
-20 -12 -20 -19 0 -8 -4 -14 -10 -14 -5 0 -10 8 -10 17 0 13 -3 14 -11 6 -19
-19 14 -45 46 -37 14 3 25 2 25 -4 0 -5 -16 -13 -35 -16 -44 -9 -48 -36 -5
-36 38 0 61 -35 34 -54 -9 -7 -14 -18 -10 -24 4 -7 1 -12 -6 -12 -10 0 -9 -3
1 -9 12 -8 12 -12 2 -25 -8 -9 -19 -16 -27 -16 -25 0 -27 -23 -4 -42 17 -13
18 -18 6 -18 -10 0 -13 -6 -9 -17 5 -15 3 -14 -10 2 -9 11 -17 26 -17 33 0 6
-4 12 -9 12 -14 0 -19 -22 -10 -52 6 -22 4 -26 -9 -21 -9 4 -13 2 -9 -4 4 -6
-3 -8 -18 -5 -15 2 -25 0 -25 -7 0 -6 -11 -11 -25 -11 -14 0 -25 -4 -25 -10 0
-10 14 -14 38 -11 6 1 12 -5 12 -14 0 -8 -7 -15 -15 -15 -8 0 -15 -5 -15 -11
0 -5 3 -8 8 -5 4 2 16 -2 27 -10 17 -13 18 -17 6 -52 -18 -49 -29 -62 -55 -62
-15 0 -17 -3 -8 -9 10 -6 11 -13 1 -34 -7 -15 -16 -27 -21 -27 -4 0 -8 -6 -8
-13 0 -7 -12 -32 -27 -55 -21 -32 -34 -42 -54 -42 -47 0 -55 23 -34 88 11 31
24 60 30 64 6 5 3 8 -7 8 -10 0 -18 7 -18 15 0 8 4 15 9 15 4 0 11 25 15 56 3
30 13 72 21 92 20 47 14 59 -30 68 -23 4 -32 9 -25 14 7 4 9 13 6 19 -7 11 11
16 52 12 12 -1 22 4 23 11 5 112 11 153 23 176 13 22 15 23 16 8 0 -16 3 -17
12 -8 18 18 36 14 43 -9 5 -15 10 -18 18 -10 7 7 7 14 -1 24 -15 18 -11 59 8
74 10 8 11 12 3 13 -7 0 -20 15 -28 33 -14 29 -15 30 -10 5 4 -22 2 -26 -11
-21 -12 4 -15 2 -12 -8 3 -8 12 -13 21 -11 11 2 14 -3 9 -20 -3 -12 -7 -17
-10 -10 -2 7 -8 10 -12 7 -5 -3 -7 -12 -4 -19 3 -8 1 -17 -5 -21 -6 -3 -11 1
-11 10 0 9 -7 23 -15 31 -11 11 -12 21 -4 41 5 14 7 34 4 44 -4 12 -1 19 7 19
20 0 58 45 58 69 0 23 -15 29 -23 9 -4 -10 -6 -10 -6 0 -1 7 11 18 25 24 24
11 24 13 8 25 -10 7 -15 16 -11 19 4 4 2 12 -3 19 -6 8 -3 30 10 68 11 31 20
61 20 67 0 6 -32 10 -79 10 -78 0 -78 0 -76 -25z m695 -105 c0 -5 -7 -10 -16
-10 -8 0 -12 5 -9 10 3 6 10 10 16 10 5 0 9 -4 9 -10z m166 -127 c14 -18 19
-42 7 -30 -3 4 -12 -1 -19 -11 -17 -23 -23 -14 -17 26 6 37 10 39 29 15z m629
-3 c8 -26 -4 -48 -16 -29 -12 19 -11 49 0 49 5 0 12 -9 16 -20z m-1405 -20 c0
-5 -4 -10 -9 -10 -6 0 -13 5 -16 10 -3 6 1 10 9 10 9 0 16 -4 16 -10z m2035
-18 c-8 -8 -25 10 -19 20 4 6 9 5 15 -3 4 -7 6 -15 4 -17z m1675 -61 c0 -26
-17 -36 -35 -21 -20 16 -19 28 3 33 30 8 32 7 32 -12z m-2542 -49 c2 -7 -6
-12 -17 -12 -21 0 -27 11 -14 24 9 9 26 2 31 -12z m-1213 -2 c3 -5 1 -10 -4
-10 -6 0 -11 5 -11 10 0 6 2 10 4 10 3 0 8 -4 11 -10z m1146 -13 c-10 -9 -11
-8 -5 6 3 10 9 15 12 12 3 -3 0 -11 -7 -18z m-106 3 c3 -5 -1 -10 -9 -10 -9 0
-16 5 -16 10 0 6 4 10 9 10 6 0 13 -4 16 -10z m262 -22 c-3 -8 -6 -5 -6 6 -1
11 2 17 5 13 3 -3 4 -12 1 -19z m-957 -27 c0 -11 5 -23 10 -26 6 -3 10 -10 10
-16 0 -5 -4 -9 -10 -9 -5 0 -10 6 -10 14 0 7 -9 16 -20 19 -11 3 -20 12 -20
21 0 9 8 16 20 16 13 0 20 -7 20 -19z m2847 -7 c-3 -3 -12 -4 -19 -1 -8 3 -5
6 6 6 11 1 17 -2 13 -5z m480 -66 c-3 -7 -5 -2 -5 12 0 14 2 19 5 13 2 -7 2
-19 0 -25z m-3780 -54 c-3 -3 -12 -4 -19 -1 -8 3 -5 6 6 6 11 1 17 -2 13 -5z
m3251 -29 c-2 -10 -8 -12 -17 -6 -12 8 -12 11 0 24 15 16 23 8 17 -18z m612
-10 c0 -8 -4 -15 -10 -15 -5 0 -7 7 -4 15 4 8 8 15 10 15 2 0 4 -7 4 -15z
m-12 -95 c-15 -23 -38 -27 -38 -6 0 8 10 17 23 19 12 2 23 5 25 6 1 0 -3 -8
-10 -19z m-1023 -21 c10 -16 -26 -50 -49 -47 -23 3 -24 37 -3 50 17 11 45 10
52 -3z m-2526 -43 c-2 -2 -13 -6 -24 -8 -15 -2 -19 2 -17 17 6 30 26 38 36 15
5 -11 7 -22 5 -24z m3511 34 c0 -20 2 -25 12 -38 6 -7 8 -15 4 -19 -3 -3 -6
-1 -6 5 0 6 -7 9 -15 6 -8 -4 -15 -2 -15 2 0 5 -3 19 -6 32 -5 16 -2 22 10 22
9 0 16 -4 16 -10z m-17 -117 c-4 -11 -8 -12 -13 -3 -5 9 -10 6 -15 -9 -6 -20
-25 -20 -25 0 0 6 5 7 10 4 6 -3 10 3 10 14 0 21 21 34 32 18 3 -6 4 -17 1
-24z m-3480 -7 c-3 -5 -1 -6 6 -2 7 4 19 5 28 2 12 -5 13 -9 3 -21 -10 -12 -9
-15 4 -15 9 0 16 -5 16 -11 0 -5 -4 -7 -10 -4 -5 3 -10 1 -10 -4 0 -6 4 -11 9
-11 5 0 8 -8 6 -17 -2 -10 -4 -24 -4 -30 -1 -7 -8 -13 -16 -13 -8 0 -26 -17
-39 -37 -26 -41 -110 -123 -125 -123 -20 0 -71 36 -71 49 0 8 3 11 7 8 7 -8
53 55 53 72 0 6 3 11 8 11 4 0 16 16 27 36 11 20 37 52 60 72 22 19 34 32 28
28 -16 -9 -16 -1 -2 26 9 16 13 18 19 7 5 -7 6 -17 3 -23z m3677 19 c0 -8 -7
-15 -15 -15 -16 0 -20 12 -8 23 11 12 23 8 23 -8z m20 -77 c0 -7 -4 -19 -9
-27 -11 -17 -25 3 -17 24 7 18 26 20 26 3z m55 -18 c3 -5 -1 -10 -9 -10 -9 0
-16 5 -16 10 0 6 4 10 9 10 6 0 13 -4 16 -10z m-559 -12 c4 -6 -1 -17 -11 -24
-23 -17 -26 -14 -18 14 6 24 18 28 29 10z m-3446 -185 c0 -24 -42 -95 -59
-101 -11 -4 -12 2 -7 24 4 16 7 40 7 53 -1 32 6 41 35 41 16 0 24 -6 24 -17z
m93 -25 c15 -12 9 -21 -53 -87 -39 -41 -73 -71 -76 -68 -6 6 34 92 67 145 15
25 37 28 62 10z m3247 -12 c0 -13 4 -26 8 -28 9 -4 52 -101 52 -119 0 -7 -18
5 -39 27 -32 31 -46 38 -70 36 -18 -2 -31 1 -31 7 0 6 5 10 12 9 7 -2 15 8 18
22 14 53 23 70 36 70 8 0 14 -10 14 -24z m-65 -6 c-3 -5 -11 -10 -16 -10 -6 0
-7 5 -4 10 3 6 11 10 16 10 6 0 7 -4 4 -10z m-15 -30 c0 -5 -4 -10 -10 -10 -5
0 -10 5 -10 10 0 6 5 10 10 10 6 0 10 -4 10 -10z m-3440 -31 c0 -5 -4 -9 -10
-9 -5 0 -10 7 -10 16 0 8 5 12 10 9 6 -3 10 -10 10 -16z m3423 -4 c1 -5 -6
-11 -15 -13 -11 -2 -18 3 -18 13 0 17 30 18 33 0z m-3507 -192 c-10 -10 -19 5
-10 18 6 11 8 11 12 0 2 -7 1 -15 -2 -18z m3438 -79 c4 -15 1 -33 -9 -47 -15
-21 -15 -21 -15 0 0 11 -3 35 -6 52 -5 26 -4 30 9 25 8 -3 18 -17 21 -30z
m-3550 -248 c-6 -16 -24 -23 -24 -8 0 10 22 33 27 28 2 -2 1 -11 -3 -20z
m1559 10 c9 0 17 -4 17 -8 0 -4 7 -8 15 -8 8 0 15 5 15 11 0 21 23 3 25 -20 1
-16 -2 -21 -14 -17 -9 3 -40 13 -68 23 -29 9 -53 21 -53 26 0 4 10 5 23 1 12
-4 30 -8 40 -8z m2057 -95 c0 -6 -4 -13 -10 -16 -5 -3 -10 1 -10 9 0 9 5 16
10 16 6 0 10 -4 10 -9z m-2329 -33 c9 -19 33 -42 60 -55 24 -13 45 -28 47 -33
2 -4 -21 -11 -51 -15 -58 -7 -99 6 -135 46 -16 17 -18 24 -8 44 9 20 41 41 66
44 3 0 12 -14 21 -31z m2359 22 c0 -5 -2 -10 -4 -10 -3 0 -8 5 -11 10 -3 6 -1
10 4 10 6 0 11 -4 11 -10z m-1950 -131 c0 -14 -17 -10 -23 5 -4 10 -1 13 9 9
7 -3 14 -9 14 -14z m1980 -255 c0 -8 -4 -12 -10 -9 -5 3 -10 10 -10 16 0 5 5
9 10 9 6 0 10 -7 10 -16z m266 -201 c-10 -10 -19 5 -10 18 6 11 8 11 12 0 2
-7 1 -15 -2 -18z m-815 -27 c5 3 9 -9 9 -26 0 -28 -2 -30 -15 -16 -8 8 -15 25
-14 38 0 13 3 17 6 10 2 -6 9 -10 14 -6z m-731 -28 c0 -6 -6 -5 -15 2 -8 7
-15 14 -15 16 0 2 7 1 15 -2 8 -4 15 -11 15 -16z m820 -23 c0 -8 -4 -15 -10
-15 -5 0 -10 7 -10 15 0 8 5 15 10 15 6 0 10 -7 10 -15z m860 5 c0 -5 -4 -10
-10 -10 -5 0 -10 5 -10 10 0 6 5 10 10 10 6 0 10 -4 10 -10z m-916 -16 c3 -8
2 -12 -4 -9 -6 3 -10 10 -10 16 0 14 7 11 14 -7z m176 -34 c-8 -5 -17 -7 -19
-4 -3 3 1 9 9 14 8 5 17 7 19 4 3 -3 -1 -9 -9 -14z m-149 -17 c-12 -20 -14
-14 -5 12 4 9 9 14 11 11 3 -2 0 -13 -6 -23z m-21 -33 c-8 -5 -19 -10 -25 -10
-5 0 -3 5 5 10 8 5 20 10 25 10 6 0 3 -5 -5 -10z m130 -40 c0 -5 -2 -10 -4
-10 -3 0 -8 5 -11 10 -3 6 -1 10 4 10 6 0 11 -4 11 -10z m-202 -31 c9 -15 20
-19 35 -15 22 5 22 5 2 -10 -12 -9 -21 -11 -23 -4 -2 5 -10 10 -18 10 -8 0
-14 2 -14 4 0 2 -3 11 -6 20 -9 23 9 20 24 -5z m-648 -29 c-6 -11 -15 -20 -20
-20 -6 0 -5 9 2 20 7 11 16 20 21 20 4 0 3 -9 -3 -20z m770 1 c0 -6 -4 -13
-10 -16 -5 -3 -10 1 -10 9 0 9 5 16 10 16 6 0 10 -4 10 -9z m-54 -26 c1 -16
-2 -22 -9 -18 -6 4 -24 8 -40 10 -24 3 -28 0 -22 -14 4 -13 3 -15 -5 -7 -17
17 -1 46 21 39 13 -5 54 7 54 15 0 0 1 -11 1 -25z m64 -42 c-11 -17 -11 -17
-6 0 3 10 7 28 7 40 2 22 2 22 6 0 2 -12 -1 -30 -7 -40z m-190 -2 c0 -19 -20
-22 -42 -7 -22 16 -22 16 10 16 17 0 32 -4 32 -9z m136 -18 c-10 -10 -19 5
-10 18 6 11 8 11 12 0 2 -7 1 -15 -2 -18z m-436 7 c0 -5 -4 -10 -10 -10 -5 0
-10 5 -10 10 0 6 5 10 10 10 6 0 10 -4 10 -10z m410 -8 c16 -10 27 -22 22 -27
-4 -4 1 -5 11 -2 9 4 17 2 17 -3 0 -18 -35 -10 -50 10 -8 11 -20 20 -27 20 -7
0 -13 5 -13 10 0 14 5 13 40 -8z m-420 -37 c0 -8 -4 -15 -10 -15 -5 0 -7 7 -4
15 4 8 8 15 10 15 2 0 4 -7 4 -15z m342 -58 c-12 -13 -22 -32 -22 -42 0 -10
-3 -16 -6 -12 -11 11 7 66 24 70 9 3 19 5 21 6 3 0 -5 -9 -17 -22z m-125 -33
c-3 -3 -12 -4 -19 -1 -8 3 -5 6 6 6 11 1 17 -2 13 -5z m38 -14 c3 -5 1 -10 -4
-10 -6 0 -11 5 -11 10 0 6 2 10 4 10 3 0 8 -4 11 -10z m-1059 -37 c-10 -10
-19 5 -10 18 6 11 8 11 12 0 2 -7 1 -15 -2 -18z m101 -9 c-3 -3 -16 -4 -29 -2
l-23 5 25 10 c23 10 41 1 27 -13z m668 -3 c3 -5 1 -12 -5 -16 -5 -3 -10 1 -10
9 0 18 6 21 15 7z m302 -7 c-3 -3 -12 -4 -19 -1 -8 3 -5 6 6 6 11 1 17 -2 13
-5z m-397 -18 c0 -3 -4 -8 -10 -11 -5 -3 -10 -1 -10 4 0 6 5 11 10 11 6 0 10
-2 10 -4z m85 -26 c3 -5 -1 -10 -9 -10 -9 0 -16 5 -16 10 0 6 4 10 9 10 6 0
13 -4 16 -10z m-45 -25 c0 -14 -4 -25 -10 -25 -5 0 -10 11 -10 25 0 14 5 25
10 25 6 0 10 -11 10 -25z m-33 -7 c-3 -8 -6 -5 -6 6 -1 11 2 17 5 13 3 -3 4
-12 1 -19z m-92 -8 c3 -5 -1 -10 -10 -10 -9 0 -13 5 -10 10 3 6 8 10 10 10 2
0 7 -4 10 -10z m358 -15 c-21 -15 -34 -10 -27 9 3 8 14 12 25 9 18 -5 18 -6 2
-18z m62 15 c3 -5 1 -10 -4 -10 -6 0 -11 5 -11 10 0 6 2 10 4 10 3 0 8 -4 11
-10z m-465 -22 c0 -7 -7 -22 -15 -32 -12 -16 -19 -17 -37 -8 -23 10 -23 11 -2
11 13 1 24 9 27 21 6 22 27 28 27 8z m60 -8 c0 -5 -7 -10 -15 -10 -8 0 -15 -5
-15 -12 0 -6 -2 -9 -5 -6 -3 3 -3 13 1 22 7 17 34 22 34 6z m207 -52 c-3 -8
-6 -5 -6 6 -1 11 2 17 5 13 3 -3 4 -12 1 -19z m43 2 c0 -5 -2 -10 -4 -10 -3 0
-8 5 -11 10 -3 6 -1 10 4 10 6 0 11 -4 11 -10z m-413 -22 c-3 -8 -6 -5 -6 6
-1 11 2 17 5 13 3 -3 4 -12 1 -19z m326 -12 c16 -12 16 -13 -7 -13 -14 0 -27
6 -30 13 -7 18 14 17 37 0z m-690 -13 c-7 -2 -19 -2 -25 0 -7 3 -2 5 12 5 14
0 19 -2 13 -5z m282 -3 c3 -5 1 -10 -4 -10 -6 0 -11 5 -11 10 0 6 2 10 4 10 3
0 8 -4 11 -10z m378 -25 c-3 -9 -8 -14 -10 -11 -3 3 -2 9 2 15 9 16 15 13 8
-4z m-176 -31 c-3 -3 -12 -4 -19 -1 -8 3 -5 6 6 6 11 1 17 -2 13 -5z m-117
-34 c0 -5 -5 -10 -11 -10 -5 0 -7 5 -4 10 3 6 8 10 11 10 2 0 4 -4 4 -10z
m240 -10 c0 -5 -4 -10 -9 -10 -6 0 -13 5 -16 10 -3 6 1 10 9 10 9 0 16 -4 16
-10z m-526 -15 c-4 -8 -14 -15 -23 -14 -12 0 -12 2 -2 6 11 5 11 7 0 14 -10 6
-8 9 8 9 16 0 21 -4 17 -15z m332 -25 c43 -20 59 -50 34 -65 -6 -3 -7 1 -4 10
4 10 1 14 -7 12 -8 -2 -11 -2 -6 0 4 3 7 8 7 12 0 11 -51 33 -59 25 -3 -4 0
-9 7 -11 6 -3 12 -10 12 -16 0 -8 -3 -8 -11 0 -6 6 -19 9 -28 5 -13 -5 -14 -3
-4 9 10 12 10 18 1 27 -19 19 6 15 58 -8z m84 -11 c0 -18 -18 -9 -23 12 -4 16
-3 18 9 8 8 -6 14 -15 14 -20z m-480 -89 c0 -5 -2 -10 -4 -10 -3 0 -8 5 -11
10 -3 6 -1 10 4 10 6 0 11 -4 11 -10z m-330 -235 c0 -16 -47 -58 -53 -48 -9
15 -12 58 -4 70 9 15 57 -3 57 -22z m-364 -651 c-3 -9 -6 -20 -6 -25 0 -15
-17 -10 -24 7 -8 20 1 34 21 34 10 0 13 -6 9 -16z"/>
<path d="M620 4420 c0 -5 5 -10 11 -10 5 0 7 5 4 10 -3 6 -8 10 -11 10 -2 0
-4 -4 -4 -10z"/>
<path d="M350 4361 c0 -17 12 -41 21 -41 5 0 8 11 7 25 -2 23 -28 37 -28 16z"/>
<path d="M735 4350 c3 -5 8 -10 11 -10 2 0 4 5 4 10 0 6 -5 10 -11 10 -5 0 -7
-4 -4 -10z"/>
<path d="M713 4325 c-7 -8 -9 -16 -4 -19 5 -3 12 1 15 10 8 22 4 25 -11 9z"/>
<path d="M631 4164 c0 -11 3 -14 6 -6 3 7 2 16 -1 19 -3 4 -6 -2 -5 -13z"/>
<path d="M2680 4055 c0 -8 2 -15 4 -15 2 0 6 7 10 15 3 8 1 15 -4 15 -6 0 -10
-7 -10 -15z"/>
<path d="M2220 3980 c0 -5 5 -10 10 -10 6 0 10 5 10 10 0 6 -4 10 -10 10 -5 0
-10 -4 -10 -10z"/>
<path d="M666 3935 c-9 -26 -7 -32 5 -12 6 10 9 21 6 23 -2 3 -7 -2 -11 -11z"/>
<path d="M582 3924 c-7 -8 -8 -14 -3 -14 10 0 25 19 20 25 -2 1 -10 -3 -17
-11z"/>
<path d="M498 3910 c-10 -9 -18 -25 -18 -36 0 -14 5 -11 21 14 24 37 22 48 -3
22z"/>
<path d="M600 3891 c0 -15 -7 -19 -36 -19 -19 0 -38 -3 -41 -6 -4 -3 10 -6 30
-6 19 0 43 -3 53 -7 13 -5 16 -3 11 10 -3 9 -2 19 3 22 15 9 12 25 -5 25 -8 0
-15 -9 -15 -19z"/>
<path d="M670 3880 c0 -5 5 -10 11 -10 5 0 7 5 4 10 -3 6 -8 10 -11 10 -2 0
-4 -4 -4 -10z"/>
<path d="M490 3850 c-8 -5 -12 -11 -9 -14 2 -3 11 -1 19 4 8 5 12 11 9 14 -2
3 -11 1 -19 -4z"/>
<path d="M4330 3844 c0 -16 -2 -17 -10 -4 -8 11 -10 7 -8 -17 2 -27 11 -37 14
-15 0 4 4 15 9 25 4 10 5 21 1 24 -3 4 -6 -2 -6 -13z"/>
<path d="M630 3820 c0 -11 5 -20 10 -20 6 0 10 9 10 20 0 11 -4 20 -10 20 -5
0 -10 -9 -10 -20z"/>
<path d="M535 3811 c-3 -5 -1 -12 5 -16 5 -3 10 1 10 9 0 18 -6 21 -15 7z"/>
<path d="M570 3806 c0 -9 30 -14 35 -6 4 6 -3 10 -14 10 -12 0 -21 -2 -21 -4z"/>
<path d="M5 3790 c-3 -5 -1 -10 4 -10 6 0 11 5 11 10 0 6 -2 10 -4 10 -3 0 -8
-4 -11 -10z"/>
<path d="M105 3780 c-3 -5 1 -10 10 -10 9 0 13 5 10 10 -3 6 -8 10 -10 10 -2
0 -7 -4 -10 -10z"/>
<path d="M540 3736 c0 -23 16 -27 17 -5 1 10 -2 19 -8 19 -5 0 -9 -6 -9 -14z"/>
<path d="M4386 3691 c-7 -11 3 -41 14 -41 5 0 15 -3 24 -6 13 -5 16 1 16 25 0
26 -4 31 -24 31 -14 0 -27 -4 -30 -9z"/>
<path d="M3732 3651 c2 -7 7 -12 11 -12 12 1 9 15 -3 20 -7 2 -11 -2 -8 -8z"/>
<path d="M2911 3556 c-16 -19 0 -51 27 -52 27 -1 28 8 2 31 -11 10 -17 22 -14
26 8 14 -2 10 -15 -5z"/>
<path d="M4029 3418 c-1 -2 -3 -16 -5 -32 -3 -26 -2 -27 10 -10 8 10 12 24 9
31 -5 12 -11 17 -14 11z"/>
<path d="M3078 3393 c7 -3 16 -2 19 1 4 3 -2 6 -13 5 -11 0 -14 -3 -6 -6z"/>
<path d="M640 3221 c8 -5 26 -12 40 -15 24 -7 24 -6 6 8 -11 9 -29 16 -40 16
-17 -1 -18 -2 -6 -9z"/>
<path d="M4230 3201 c0 -6 4 -13 10 -16 6 -3 7 1 4 9 -7 18 -14 21 -14 7z"/>
<path d="M0 3131 c0 -6 6 -11 13 -12 58 -2 100 -9 113 -19 11 -10 14 -9 14 3
0 19 -22 28 -87 34 -36 4 -53 2 -53 -6z"/>
<path d="M2563 3080 c-18 -11 -33 -17 -33 -14 0 4 -6 1 -13 -5 -8 -6 -17 -8
-20 -4 -4 3 -16 -4 -26 -16 -11 -13 -25 -20 -30 -17 -6 4 -24 0 -41 -9 -17 -9
-37 -14 -43 -12 -7 2 -25 -3 -40 -12 -25 -14 -29 -14 -37 -1 -6 8 -10 10 -10
3 0 -6 -26 -19 -57 -28 -32 -9 -66 -21 -76 -26 -10 -5 -22 -7 -26 -4 -5 2 -14
-2 -21 -9 -6 -8 -25 -18 -41 -21 -16 -4 -29 -11 -29 -16 0 -5 -12 -9 -26 -9
-19 0 -25 -4 -20 -15 3 -8 2 -15 -3 -15 -13 0 -22 -43 -10 -50 12 -8 -6 -60
-21 -60 -5 0 -10 -4 -10 -10 0 -5 6 -10 14 -10 8 0 16 -6 19 -12 3 -9 11 -5
25 10 21 24 42 22 42 -4 0 -8 -7 -17 -15 -20 -8 -4 -15 -12 -15 -20 0 -8 -5
-14 -10 -14 -6 0 -8 -13 -5 -31 4 -19 2 -28 -5 -24 -5 3 -10 1 -10 -4 0 -6 6
-11 14 -11 11 0 12 -8 6 -36 -7 -30 -4 -43 13 -70 24 -37 37 -39 52 -6 10 22
45 31 45 12 0 -5 7 -10 16 -10 13 0 14 -3 5 -14 -8 -10 -8 -20 3 -41 8 -15 12
-35 9 -44 -5 -13 -3 -14 7 -4 13 12 20 30 22 60 1 6 7 9 15 6 16 -6 16 -13 -2
-37 -20 -26 -19 -42 0 -26 23 19 75 20 75 3 0 -8 5 -11 11 -8 5 4 20 -1 31
-12 12 -10 18 -13 15 -7 -9 15 16 25 34 13 11 -7 11 -9 1 -9 -7 0 -10 -4 -7
-10 3 -5 21 -10 39 -10 19 0 39 -7 46 -15 7 -8 20 -15 29 -15 9 0 22 -5 27
-10 8 -8 20 -5 42 7 26 15 35 16 49 5 29 -20 43 -25 51 -17 4 3 -1 11 -11 16
-9 6 -15 14 -12 18 2 5 -4 16 -15 26 -12 10 -20 13 -20 7 0 -7 -8 -12 -17 -12
-15 0 -16 2 -3 10 13 9 13 11 0 19 -8 6 -11 13 -7 18 5 4 12 1 16 -6 6 -10 10
-10 16 -2 4 7 1 18 -5 26 -10 12 -9 15 3 15 8 0 20 -7 27 -15 15 -18 30 -11
30 14 0 16 8 18 55 16 30 -1 52 2 49 7 -3 4 -23 8 -45 8 -21 0 -39 4 -39 9 0
5 9 7 20 4 14 -4 20 0 20 11 0 19 26 22 33 4 3 -8 6 -5 6 5 1 10 5 16 10 13
14 -9 61 12 60 26 0 10 -2 10 -6 0 -4 -10 -8 -10 -19 -1 -10 8 -14 8 -14 0 0
-6 -4 -11 -9 -11 -5 0 -7 9 -4 19 3 12 11 17 19 14 8 -3 21 0 29 7 12 10 15 9
15 -4 0 -9 4 -16 9 -16 5 0 13 -9 16 -20 3 -11 11 -20 16 -20 14 0 11 17 -6
34 -18 18 -19 38 -3 54 9 9 9 12 0 12 -7 0 -12 -4 -12 -10 0 -16 -17 -12 -24
6 -8 21 8 51 19 35 5 -9 16 -2 36 20 16 18 29 27 29 21 0 -7 9 -12 21 -12 15
0 19 5 15 15 -3 8 0 15 7 15 8 0 7 4 -3 10 -13 9 -13 11 0 20 8 5 22 9 30 9
28 -2 32 1 20 16 -10 12 -10 19 -2 27 14 14 16 52 2 43 -5 -3 -7 -12 -3 -20 3
-8 0 -15 -6 -15 -6 0 -11 6 -11 13 0 6 -5 4 -11 -7 -9 -15 -13 -16 -20 -5 -4
8 -6 24 -3 36 4 14 0 24 -13 31 -21 11 -46 5 -37 -9 3 -5 0 -9 -6 -9 -6 0 -13
8 -17 18 -13 36 -24 43 -45 28 -22 -16 -58 -10 -58 9 0 7 -7 15 -15 19 -13 4
-13 2 -5 -14 12 -23 14 -52 2 -33 -5 7 -19 10 -35 8 -21 -4 -27 -1 -27 12 0
16 -2 16 -11 3 -8 -11 -12 -12 -16 -2 -2 6 -9 12 -14 12 -6 0 -7 -4 -4 -10 3
-5 2 -10 -4 -10 -5 0 -12 6 -14 13 -4 10 -6 10 -6 0 -1 -7 -14 -13 -29 -13
-16 0 -32 -3 -36 -7 -9 -9 -106 -11 -106 -3 0 3 -9 6 -20 7 -11 1 -20 -4 -20
-13 0 -15 -2 -15 -67 -18 -22 0 -39 2 -36 7 2 4 12 7 21 7 9 0 28 12 41 26 13
14 30 23 38 20 8 -3 16 1 19 8 7 18 42 27 50 14 4 -6 9 -5 14 3 6 9 12 9 25
-4 22 -22 45 -22 45 1 0 9 5 24 10 32 9 13 12 12 21 -4 9 -14 13 -15 19 -5 10
16 116 23 125 9 4 -6 11 -7 17 -4 6 4 14 0 19 -7 7 -11 9 -10 9 4 0 9 5 17 10
17 6 0 10 -5 10 -11 0 -6 7 -8 16 -5 9 3 34 1 56 -6 30 -9 41 -9 47 0 5 8 26
10 59 8 35 -3 52 -1 52 7 0 8 3 8 12 -1 14 -14 38 -16 38 -2 0 5 -7 7 -15 4
-11 -4 -15 1 -15 17 0 17 -3 20 -9 11 -6 -10 -10 -8 -14 8 -3 12 -3 19 0 16 9
-9 33 15 33 33 0 9 -3 12 -8 6 -4 -5 -16 -9 -27 -9 -11 1 -26 2 -34 3 -8 1
-11 8 -8 21 3 11 1 20 -4 20 -5 0 -9 -4 -9 -9 0 -5 -13 -11 -30 -13 -16 -3
-30 -2 -30 1 0 3 -14 7 -31 7 -17 1 -34 6 -38 12 -4 7 -12 8 -20 2 -16 -9 -42
-2 -53 14 -5 7 -8 7 -8 -2 0 -7 -5 -10 -11 -6 -6 3 -36 8 -68 10 -41 2 -64 -2
-88 -16z m424 -112 c-3 -8 -6 -5 -6 6 -1 11 2 17 5 13 3 -3 4 -12 1 -19z
m-167 8 c0 -2 -7 -7 -16 -10 -8 -3 -12 -2 -9 4 6 10 25 14 25 6z m-303 -58
c-3 -8 -6 -5 -6 6 -1 11 2 17 5 13 3 -3 4 -12 1 -19z m308 -58 c3 -5 -1 -10
-9 -10 -9 0 -16 5 -16 10 0 6 4 10 9 10 6 0 13 -4 16 -10z m85 -30 c0 -5 -4
-10 -10 -10 -5 0 -10 5 -10 10 0 6 5 10 10 10 6 0 10 -4 10 -10z m-730 -55 c0
-8 -4 -15 -10 -15 -5 0 -10 7 -10 15 0 8 5 15 10 15 6 0 10 -7 10 -15z m744
-33 c-6 -8 -44 20 -39 28 3 5 14 2 24 -8 10 -9 17 -18 15 -20z m-859 9 c3 -5
1 -12 -5 -16 -5 -3 -10 1 -10 9 0 18 6 21 15 7z m620 -62 c0 -7 -8 -15 -17
-17 -12 -2 -15 2 -11 18 6 23 28 22 28 -1z m-239 -18 c14 -16 45 -37 68 -46
40 -17 41 -17 16 -27 -24 -9 -155 -6 -166 4 -14 15 -13 59 3 78 24 28 48 25
79 -9z m288 -67 c3 -8 2 -12 -4 -9 -6 3 -10 10 -10 16 0 14 7 11 14 -7z m36
-11 c0 -21 -3 -24 -9 -14 -5 8 -7 20 -4 28 8 21 13 15 13 -14z m-585 -24 c-4
-6 -10 -8 -13 -5 -3 3 -11 1 -19 -5 -8 -8 -13 -8 -13 -1 0 11 16 20 38 21 7 1
10 -4 7 -10z m535 1 c0 -5 -2 -10 -4 -10 -3 0 -8 5 -11 10 -3 6 -1 10 4 10 6
0 11 -4 11 -10z m-663 -32 c-3 -8 -6 -5 -6 6 -1 11 2 17 5 13 3 -3 4 -12 1
-19z m583 2 c0 -5 -4 -10 -10 -10 -5 0 -10 5 -10 10 0 6 5 10 10 10 6 0 10 -4
10 -10z m-35 -20 c3 -5 -1 -10 -9 -10 -9 0 -16 5 -16 10 0 6 4 10 9 10 6 0 13
-4 16 -10z m-565 -30 c0 -5 -7 -10 -16 -10 -8 0 -12 5 -9 10 3 6 10 10 16 10
5 0 9 -4 9 -10z m547 -36 c-3 -3 -12 -4 -19 -1 -8 3 -5 6 6 6 11 1 17 -2 13
-5z m-37 -8 c0 -3 -4 -8 -10 -11 -5 -3 -10 -1 -10 4 0 6 5 11 10 11 6 0 10 -2
10 -4z m-50 -76 c0 -5 -2 -10 -4 -10 -3 0 -8 5 -11 10 -3 6 -1 10 4 10 6 0 11
-4 11 -10z m38 -37 c-10 -2 -28 -2 -40 0 -13 2 -5 4 17 4 22 1 32 -1 23 -4z"/>
<path d="M4375 3076 c-11 -6 -22 -13 -25 -16 -15 -15 -52 -30 -60 -25 -19 11
-10 -22 15 -58 22 -34 23 -37 7 -46 -11 -6 -24 -6 -34 0 -12 7 -18 2 -28 -24
-7 -17 -16 -41 -20 -52 -5 -11 -13 -42 -19 -70 -6 -27 -14 -63 -17 -80 -4 -16
-6 -38 -5 -48 2 -15 -2 -18 -21 -12 l-23 6 24 -21 c32 -27 52 -22 72 17 9 18
22 39 28 47 8 9 8 15 2 18 -7 2 -6 19 3 48 10 33 19 46 35 48 21 3 32 42 12
42 -12 0 15 68 35 91 8 8 14 32 14 53 0 20 7 48 16 62 20 29 16 36 -11 20z"/>
<path d="M4420 3010 c0 -5 5 -10 10 -10 6 0 10 5 10 10 0 6 -4 10 -10 10 -5 0
-10 -4 -10 -10z"/>
<path d="M3043 3003 c-7 -2 -13 -9 -13 -15 0 -6 7 -8 15 -4 11 4 15 -1 15 -17
1 -20 1 -21 11 -4 18 31 3 53 -28 40z"/>
<path d="M385 2980 c-3 -5 3 -10 15 -10 12 0 18 5 15 10 -3 6 -10 10 -15 10
-5 0 -12 -4 -15 -10z"/>
<path d="M3985 2980 c-3 -5 -2 -10 4 -10 5 0 13 5 16 10 3 6 2 10 -4 10 -5 0
-13 -4 -16 -10z"/>
<path d="M3890 2961 c0 -16 28 -20 34 -5 4 9 -1 14 -14 14 -11 0 -20 -4 -20
-9z"/>
<path d="M4420 2950 c0 -5 5 -10 10 -10 6 0 10 5 10 10 0 6 -4 10 -10 10 -5 0
-10 -4 -10 -10z"/>
<path d="M30 2919 c0 -5 5 -7 10 -4 6 3 10 8 10 11 0 2 -4 4 -10 4 -5 0 -10
-5 -10 -11z"/>
<path d="M2646 2917 c3 -10 9 -15 12 -12 3 3 0 11 -7 18 -10 9 -11 8 -5 -6z"/>
<path d="M2810 2915 c0 -8 2 -15 4 -15 2 0 6 7 10 15 3 8 1 15 -4 15 -6 0 -10
-7 -10 -15z"/>
<path d="M3758 2895 c5 -28 17 -33 26 -10 3 8 -2 19 -13 24 -16 9 -17 7 -13
-14z"/>
<path d="M675 2900 c-3 -5 -1 -10 4 -10 6 0 11 5 11 10 0 6 -2 10 -4 10 -3 0
-8 -4 -11 -10z"/>
<path d="M2946 2890 c-17 -6 -18 -7 -3 -13 9 -3 19 -2 23 4 9 15 2 18 -20 9z"/>
<path d="M4415 2872 c-31 -41 -37 -62 -17 -62 32 0 43 16 40 53 l-3 35 -20
-26z"/>
<path d="M2910 2872 c0 -12 19 -26 26 -19 2 2 -2 10 -11 17 -9 8 -15 8 -15 2z"/>
<path d="M2340 2860 c0 -5 5 -10 10 -10 6 0 10 5 10 10 0 6 -4 10 -10 10 -5 0
-10 -4 -10 -10z"/>
<path d="M1895 2814 c4 -48 17 -58 13 -10 -1 20 -5 39 -9 42 -4 2 -6 -12 -4
-32z"/>
<path d="M486 2833 c-14 -14 -5 -31 14 -26 11 3 20 9 20 13 0 10 -26 20 -34
13z"/>
<path d="M2990 2800 c0 -5 5 -10 10 -10 6 0 10 5 10 10 0 6 -4 10 -10 10 -5 0
-10 -4 -10 -10z"/>
<path d="M1930 2775 c0 -8 2 -15 4 -15 2 0 6 7 10 15 3 8 1 15 -4 15 -6 0 -10
-7 -10 -15z"/>
<path d="M1842 2745 c0 -16 2 -22 5 -12 2 9 2 23 0 30 -3 6 -5 -1 -5 -18z"/>
<path d="M2988 2763 c6 -2 18 -2 25 0 6 3 1 5 -13 5 -14 0 -19 -2 -12 -5z"/>
<path d="M622 2737 c21 -12 39 -27 40 -33 2 -7 11 -8 22 -4 18 6 15 10 -19 33
-22 15 -49 27 -60 27 -15 -1 -11 -6 17 -23z"/>
<path d="M1890 2740 c0 -5 7 -10 15 -10 8 0 15 5 15 10 0 6 -7 10 -15 10 -8 0
-15 -4 -15 -10z"/>
<path d="M1725 2730 c3 -5 8 -10 11 -10 2 0 4 5 4 10 0 6 -5 10 -11 10 -5 0
-7 -4 -4 -10z"/>
<path d="M1869 2738 c-11 -46 -3 -62 19 -35 7 8 6 16 -4 25 -8 7 -14 11 -15
10z"/>
<path d="M3805 2730 c3 -5 8 -10 11 -10 2 0 4 5 4 10 0 6 -5 10 -11 10 -5 0
-7 -4 -4 -10z"/>
<path d="M4033 2720 c-1 -11 2 -18 8 -15 11 7 12 35 1 35 -4 0 -8 -9 -9 -20z"/>
<path d="M392 2718 c-19 -19 -14 -29 8 -16 20 13 27 28 12 28 -4 0 -13 -5 -20
-12z"/>
<path d="M714 2709 c-3 -5 6 -9 20 -9 31 0 34 6 6 13 -11 3 -23 1 -26 -4z"/>
<path d="M315 2701 c-3 -5 -1 -12 5 -16 5 -3 10 1 10 9 0 18 -6 21 -15 7z"/>
<path d="M350 2700 c0 -5 5 -10 11 -10 5 0 7 5 4 10 -3 6 -8 10 -11 10 -2 0
-4 -4 -4 -10z"/>
<path d="M610 2670 c0 -5 7 -10 15 -10 8 0 15 5 15 10 0 6 -7 10 -15 10 -8 0
-15 -4 -15 -10z"/>
<path d="M825 2670 c-3 -5 -2 -10 4 -10 5 0 13 5 16 10 3 6 2 10 -4 10 -5 0
-13 -4 -16 -10z"/>
<path d="M344 2643 c3 -8 -1 -16 -9 -19 -8 -4 -15 -17 -15 -30 0 -12 -7 -27
-16 -32 -14 -8 -14 -11 -3 -18 36 -22 73 -7 50 20 -9 10 -8 15 4 20 17 6 21
26 4 26 -5 0 -7 -4 -4 -10 3 -5 2 -10 -4 -10 -20 0 -21 20 -1 32 24 15 26 35
5 35 -9 0 -14 -6 -11 -14z"/>
<path d="M780 2649 c0 -5 5 -7 12 -3 8 5 9 2 5 -10 -4 -10 -3 -15 3 -11 15 10
12 35 -5 35 -8 0 -15 -5 -15 -11z"/>
<path d="M3726 2644 c-8 -21 -8 -21 8 -21 8 0 11 8 8 19 -5 22 -8 23 -16 2z"/>
<path d="M212 2620 c-7 -11 -19 -20 -27 -20 -8 0 -15 -5 -15 -11 0 -5 -6 -7
-12 -3 -10 5 -10 4 0 -7 10 -11 16 -11 32 -1 10 6 26 9 35 6 16 -7 21 11 5 21
-5 3 -7 12 -3 20 8 21 0 18 -15 -5z"/>
<path d="M577 2603 c-12 -11 -8 -23 8 -23 8 0 15 7 15 15 0 16 -12 20 -23 8z"/>
<path d="M60 2584 c0 -14 3 -15 18 -3 9 7 19 15 21 16 2 2 -5 3 -17 3 -14 0
-22 -6 -22 -16z"/>
<path d="M2840 2570 c0 -5 5 -10 10 -10 6 0 10 5 10 10 0 6 -4 10 -10 10 -5 0
-10 -4 -10 -10z"/>
<path d="M3930 2570 c0 -5 5 -10 10 -10 6 0 10 5 10 10 0 6 -4 10 -10 10 -5 0
-10 -4 -10 -10z"/>
<path d="M4053 2563 c-26 -18 -30 -43 -7 -43 8 0 12 -4 9 -10 -4 -6 5 -10 19
-10 20 0 26 5 26 23 0 13 -6 30 -12 39 -12 15 -15 15 -35 1z"/>
<path d="M4136 2556 c3 -8 -2 -28 -11 -43 -16 -28 -16 -31 4 -66 25 -45 26
-57 6 -57 -8 0 -15 5 -15 12 0 8 -3 9 -10 2 -5 -5 -11 -36 -12 -69 -3 -50 0
-60 15 -63 10 -2 17 3 17 11 0 8 6 20 14 26 8 7 16 28 19 49 3 20 9 49 12 65
6 21 4 27 -9 27 -23 0 -20 7 19 44 44 41 45 62 4 70 -48 9 -59 7 -53 -8z"/>
<path d="M241 2544 c0 -11 3 -14 6 -6 3 7 2 16 -1 19 -3 4 -6 -2 -5 -13z"/>
<path d="M913 2533 c-9 -22 2 -25 20 -5 15 17 16 19 1 19 -9 0 -18 -7 -21 -14z"/>
<path d="M3878 2543 c-10 -2 -18 -11 -18 -19 0 -20 14 -17 35 6 18 20 16 22
-17 13z"/>
<path d="M62 2513 c-25 -5 -20 -23 7 -23 10 0 18 7 18 15 0 8 -1 14 -1 14 -1
-1 -11 -4 -24 -6z"/>
<path d="M123 2505 c0 -22 83 -21 91 1 5 14 4 15 -8 5 -10 -8 -16 -9 -21 -1
-10 16 -62 12 -62 -5z"/>
<path d="M300 2509 c0 -5 5 -7 10 -4 6 3 10 8 10 11 0 2 -4 4 -10 4 -5 0 -10
-5 -10 -11z"/>
<path d="M470 2505 c-6 -8 -10 -19 -8 -26 2 -6 9 0 16 15 13 29 10 33 -8 11z"/>
<path d="M792 2505 c-7 -8 -9 -15 -4 -15 5 0 15 7 22 15 16 19 -1 19 -18 0z"/>
<path d="M375 2490 c-4 -6 -14 -9 -22 -5 -12 4 -13 2 -5 -8 7 -8 24 -12 42 -9
17 2 30 5 28 6 -2 1 -10 7 -20 14 -12 9 -18 10 -23 2z"/>
<path d="M570 2479 c0 -5 5 -7 10 -4 6 3 10 8 10 11 0 2 -4 4 -10 4 -5 0 -10
-5 -10 -11z"/>
<path d="M426 2442 l-19 -27 24 22 c12 12 21 24 18 27 -2 2 -13 -8 -23 -22z"/>
<path d="M681 2454 c0 -11 3 -14 6 -6 3 7 2 16 -1 19 -3 4 -6 -2 -5 -13z"/>
<path d="M2080 2460 c0 -5 -8 -10 -17 -10 -14 0 -15 -2 -4 -9 7 -5 11 -13 7
-19 -3 -6 0 -16 7 -24 8 -7 16 -20 19 -28 4 -11 9 -7 17 13 12 32 7 47 -15 47
-17 0 -18 12 -2 28 9 9 9 12 0 12 -7 0 -12 -4 -12 -10z"/>
<path d="M36 2451 c-11 -17 5 -39 25 -34 22 6 24 14 7 31 -14 14 -25 15 -32 3z"/>
<path d="M220 2440 c0 -5 5 -10 11 -10 5 0 7 5 4 10 -3 6 -8 10 -11 10 -2 0
-4 -4 -4 -10z"/>
<path d="M357 2434 c3 -7 9 -14 14 -14 14 0 10 17 -5 23 -10 4 -13 1 -9 -9z"/>
<path d="M615 2440 c3 -5 10 -10 16 -10 5 0 9 5 9 10 0 6 -7 10 -16 10 -8 0
-12 -4 -9 -10z"/>
<path d="M813 2434 c-19 -19 -16 -29 11 -44 14 -7 22 -18 20 -24 -5 -12 53
-20 60 -7 3 4 -5 7 -17 7 -13 -1 -21 4 -19 12 1 6 -2 12 -8 12 -5 0 -10 7 -10
15 0 8 -5 15 -11 15 -5 0 -8 4 -4 9 9 16 -9 20 -22 5z"/>
<path d="M860 2409 c0 -5 5 -7 10 -4 6 3 10 8 10 11 0 2 -4 4 -10 4 -5 0 -10
-5 -10 -11z"/>
<path d="M5 2399 c-11 -16 -1 -19 13 -3 7 8 8 14 3 14 -5 0 -13 -5 -16 -11z"/>
<path d="M380 2400 c0 -5 4 -10 9 -10 6 0 13 5 16 10 3 6 -1 10 -9 10 -9 0
-16 -4 -16 -10z"/>
<path d="M3360 2400 c0 -5 5 -10 10 -10 6 0 10 5 10 10 0 6 -4 10 -10 10 -5 0
-10 -4 -10 -10z"/>
<path d="M432 2379 c-7 -11 -17 -17 -23 -13 -7 4 -10 -1 -7 -11 4 -22 45 -28
52 -8 3 7 2 22 -2 33 -7 20 -7 20 -20 -1z"/>
<path d="M2695 2390 c-3 -5 -1 -10 4 -10 6 0 11 5 11 10 0 6 -2 10 -4 10 -3 0
-8 -4 -11 -10z"/>
<path d="M3384 2386 c-9 -9 -8 -17 1 -30 8 -11 15 -13 20 -7 3 6 1 11 -5 11
-7 0 -9 8 -5 20 7 23 5 25 -11 6z"/>
<path d="M556 2379 c3 -6 -3 -19 -15 -30 -26 -25 -28 -43 -1 -27 10 7 17 14
15 17 -3 2 2 12 10 21 14 16 14 18 0 24 -10 3 -14 2 -9 -5z"/>
<path d="M8 2358 c6 -6 18 -8 28 -6 14 3 12 5 -9 10 -19 3 -25 2 -19 -4z"/>
<path d="M90 2361 c0 -5 -8 -12 -17 -15 -11 -3 -8 -4 6 -3 24 2 44 27 22 27
-6 0 -11 -4 -11 -9z"/>
<path d="M2807 2350 c6 -23 19 -26 26 -6 6 16 -1 26 -19 26 -7 0 -10 -8 -7
-20z"/>
<path d="M3285 2360 c-4 -6 -10 -8 -15 -5 -4 3 -6 -4 -3 -15 6 -23 12 -24 33
-9 11 8 12 12 2 16 -6 2 -10 9 -6 14 3 5 3 9 0 9 -3 0 -8 -5 -11 -10z"/>
<path d="M906 2334 c-21 -20 -20 -23 3 -21 11 0 17 5 15 9 -3 4 0 8 5 8 6 0
11 5 11 10 0 15 -16 12 -34 -6z"/>
<path d="M120 2320 c0 -5 5 -10 11 -10 5 0 7 5 4 10 -3 6 -8 10 -11 10 -2 0
-4 -4 -4 -10z"/>
<path d="M327 2321 c-17 -6 -16 -8 9 -19 23 -11 30 -11 43 4 15 15 14 16 -3
10 -11 -4 -22 -3 -25 2 -3 5 -14 6 -24 3z"/>
<path d="M3234 2309 c-19 -22 -19 -22 4 -8 12 8 22 17 22 21 0 12 -6 9 -26
-13z"/>
<path d="M4240 2321 c0 -6 5 -13 10 -16 6 -3 10 1 10 9 0 9 -4 16 -10 16 -5 0
-10 -4 -10 -9z"/>
<path d="M620 2310 c0 -5 4 -10 9 -10 6 0 13 5 16 10 3 6 -1 10 -9 10 -9 0
-16 -4 -16 -10z"/>
<path d="M990 2309 c-13 -9 -12 -10 3 -5 9 3 17 1 17 -4 0 -6 4 -10 10 -10 5
0 7 7 4 15 -7 18 -14 18 -34 4z"/>
<path d="M3818 2301 c-9 -11 -12 -24 -8 -31 5 -7 6 -19 3 -27 -3 -9 3 -13 21
-13 19 0 26 -5 26 -19 0 -11 -4 -23 -10 -26 -5 -3 -10 -1 -10 4 0 6 -4 11 -10
11 -13 0 -13 -27 0 -35 11 -7 56 23 64 43 9 20 -24 62 -48 62 -19 1 -19 2 -3
11 20 12 23 39 4 39 -7 0 -20 -8 -29 -19z"/>
<path d="M492 2294 c-13 -15 -6 -15 48 -5 6 1 -23 21 -30 20 -3 0 -11 -7 -18
-15z"/>
<path d="M3290 2301 c0 -5 7 -12 16 -15 24 -9 27 -7 10 9 -17 17 -26 19 -26 6z"/>
<path d="M425 2280 c-14 -15 -15 -20 -4 -20 19 1 50 25 42 33 -10 11 -19 8
-38 -13z"/>
<path d="M960 2283 c0 -10 5 -25 10 -33 8 -12 10 -9 10 12 0 15 -4 30 -10 33
-5 3 -10 -2 -10 -12z"/>
<path d="M1448 2293 c7 -3 16 -2 19 1 4 3 -2 6 -13 5 -11 0 -14 -3 -6 -6z"/>
<path d="M3254 2250 c0 -21 5 -41 11 -44 12 -4 18 28 10 62 -9 36 -21 25 -21
-18z"/>
<path d="M787 2272 c-12 -2 -16 -9 -12 -23 4 -11 2 -19 -4 -19 -6 0 -11 -6
-11 -14 0 -8 -6 -17 -12 -19 -10 -4 -10 -6 0 -6 17 -1 15 -22 -5 -36 -16 -12
-16 -14 0 -29 16 -16 43 -14 33 3 -3 4 -1 13 4 21 5 8 5 19 0 25 -5 6 0 28 12
53 21 48 21 50 -5 44z"/>
<path d="M1600 2271 c0 -6 5 -13 10 -16 6 -3 10 1 10 9 0 9 -4 16 -10 16 -5 0
-10 -4 -10 -9z"/>
<path d="M1725 2260 c4 -6 11 -8 16 -5 14 9 11 15 -7 15 -8 0 -12 -5 -9 -10z"/>
<path d="M11 2252 c-6 -2 -11 -14 -11 -28 0 -21 3 -23 33 -18 50 9 57 12 57
28 0 13 -55 26 -79 18z"/>
<path d="M371 2238 c0 -16 2 -18 6 -8 3 8 11 18 17 22 7 5 4 8 -6 8 -12 0 -18
-7 -17 -22z"/>
<path d="M444 2245 c-16 -12 -16 -14 -3 -15 9 0 22 7 29 15 16 19 0 19 -26 0z"/>
<path d="M126 2242 c-3 -5 1 -15 9 -22 11 -9 19 -8 37 4 17 12 19 16 6 16 -9
0 -23 3 -31 6 -8 3 -18 1 -21 -4z"/>
<path d="M222 2238 c-18 -18 -15 -28 9 -28 11 0 18 -4 14 -9 -9 -16 15 -24 31
-10 8 6 18 9 22 5 4 -4 -4 -16 -18 -27 -27 -22 -21 -22 23 0 27 14 36 31 16
31 -6 0 -24 11 -41 25 -34 28 -39 30 -56 13z"/>
<path d="M887 2235 c-4 -8 -2 -17 3 -20 6 -4 10 3 10 14 0 25 -6 27 -13 6z"/>
<path d="M595 2229 c-4 -6 -5 -12 -2 -15 2 -3 7 2 10 11 7 17 1 20 -8 4z"/>
<path d="M835 2219 c-9 -14 -2 -20 14 -10 8 6 9 11 3 15 -6 3 -14 1 -17 -5z"/>
<path d="M350 2211 c0 -6 4 -13 10 -16 6 -3 7 1 4 9 -7 18 -14 21 -14 7z"/>
<path d="M392 2200 c0 -14 2 -19 5 -12 2 6 2 18 0 25 -3 6 -5 1 -5 -13z"/>
<path d="M473 2188 c-1 -18 2 -28 9 -26 16 6 19 35 5 47 -9 7 -13 1 -14 -21z"/>
<path d="M4124 2207 c-3 -9 -3 -25 1 -34 6 -16 8 -16 18 5 7 16 7 26 -1 34 -8
8 -13 7 -18 -5z"/>
<path d="M870 2180 c-8 -15 -8 -18 3 -14 8 3 14 11 14 19 0 20 -4 19 -17 -5z"/>
<path d="M418 2164 c-16 -8 -28 -16 -28 -18 0 -7 51 7 56 16 10 16 0 17 -28 2z"/>
<path d="M1020 2165 c0 -8 7 -15 15 -15 8 0 15 7 15 15 0 8 -7 15 -15 15 -8 0
-15 -7 -15 -15z"/>
<path d="M3241 2164 c0 -11 3 -14 6 -6 3 7 2 16 -1 19 -3 4 -6 -2 -5 -13z"/>
<path d="M347 2164 c-9 -10 2 -24 18 -24 9 0 12 6 9 15 -6 16 -17 19 -27 9z"/>
<path d="M550 2160 c-21 -7 -21 -8 -5 -9 11 0 27 4 35 9 18 11 5 11 -30 0z"/>
<path d="M3280 2161 c0 -5 5 -13 10 -16 6 -3 10 -2 10 4 0 5 -4 13 -10 16 -5
3 -10 2 -10 -4z"/>
<path d="M220 2139 c0 -5 5 -7 10 -4 6 3 10 8 10 11 0 2 -4 4 -10 4 -5 0 -10
-5 -10 -11z"/>
<path d="M3328 2133 c-12 -12 -14 -22 -8 -39 5 -13 7 -32 4 -41 -4 -12 1 -10
15 7 33 40 23 108 -11 73z"/>
<path d="M534 2128 c-10 -16 4 -22 28 -11 l22 10 -22 5 c-12 4 -25 2 -28 -4z"/>
<path d="M678 2124 c9 -7 19 -8 20 -3 2 5 8 7 13 3 5 -3 9 -1 9 5 0 5 -13 9
-30 9 -26 -1 -28 -2 -12 -14z"/>
<path d="M2091 2118 c1 -18 2 -19 6 -5 2 9 9 14 15 11 7 -4 8 -2 4 4 -12 20
-26 13 -25 -10z"/>
<path d="M887 2108 c-9 -5 -22 -18 -27 -29 -10 -18 -9 -19 8 -8 15 10 26 9 52
-5 18 -9 36 -14 38 -11 3 3 0 5 -7 5 -7 0 -10 4 -7 8 10 16 -40 50 -57 40z"/>
<path d="M204 2075 c-38 -36 -26 -39 16 -4 19 16 29 29 23 29 -7 0 -24 -11
-39 -25z"/>
<path d="M390 2085 c-11 -13 -10 -14 4 -9 9 3 16 10 16 15 0 13 -6 11 -20 -6z"/>
<path d="M432 2080 c14 -22 24 -19 15 5 -4 8 -11 15 -17 15 -6 0 -6 -7 2 -20z"/>
<path d="M3274 2092 c-19 -12 -25 -42 -9 -42 8 0 15 4 15 10 0 5 8 6 18 3 15
-6 16 -5 2 13 -8 10 -15 20 -15 21 0 1 -5 -1 -11 -5z"/>
<path d="M967 2079 c7 -7 15 -10 18 -7 3 3 -2 9 -12 12 -14 6 -15 5 -6 -5z"/>
<path d="M2184 2079 c-3 -6 -2 -15 4 -21 7 -7 14 -3 21 11 10 17 9 21 -3 21
-8 0 -18 -5 -22 -11z"/>
<path d="M3191 2083 c0 -5 4 -17 9 -28 8 -18 9 -17 9 8 1 15 -3 27 -9 27 -5 0
-10 -3 -9 -7z"/>
<path d="M966 2044 c-3 -8 -2 -12 3 -9 5 3 12 1 16 -5 8 -13 25 -3 25 16 0 19
-36 18 -44 -2z"/>
<path d="M1065 2049 c-11 -17 1 -21 15 -4 8 9 8 15 2 15 -6 0 -14 -5 -17 -11z"/>
<path d="M2100 2020 c0 -5 5 -10 10 -10 6 0 10 5 10 10 0 6 -4 10 -10 10 -5 0
-10 -4 -10 -10z"/>
<path d="M3198 2019 c-2 -6 -16 -11 -31 -11 -29 0 -33 -20 -5 -24 18 -2 55 32
46 42 -3 3 -8 0 -10 -7z"/>
<path d="M3241 2004 c0 -11 3 -14 6 -6 3 7 2 16 -1 19 -3 4 -6 -2 -5 -13z"/>
<path d="M3262 1990 c0 -14 2 -19 5 -12 2 6 2 18 0 25 -3 6 -5 1 -5 -13z"/>
<path d="M420 1985 c0 -8 5 -15 10 -15 6 0 10 7 10 15 0 8 -4 15 -10 15 -5 0
-10 -7 -10 -15z"/>
<path d="M526 1958 c3 -4 11 -5 19 -1 21 7 19 12 -4 10 -11 0 -18 -5 -15 -9z"/>
<path d="M2157 1964 c-12 -12 3 -22 23 -17 11 3 17 9 14 14 -6 10 -28 12 -37
3z"/>
<path d="M85 1941 c-3 -5 -1 -12 5 -16 5 -3 10 1 10 9 0 18 -6 21 -15 7z"/>
<path d="M1720 1940 c0 -5 7 -10 15 -10 8 0 15 5 15 10 0 6 -7 10 -15 10 -8 0
-15 -4 -15 -10z"/>
<path d="M2850 1941 c0 -5 7 -14 15 -21 13 -10 15 -9 15 9 0 12 -6 21 -15 21
-8 0 -15 -4 -15 -9z"/>
<path d="M3320 1934 c0 -8 5 -12 10 -9 6 3 10 10 10 16 0 5 -4 9 -10 9 -5 0
-10 -7 -10 -16z"/>
<path d="M3070 1930 c0 -5 -7 -10 -15 -10 -8 0 -15 -4 -15 -10 0 -14 23 -13
38 2 15 15 16 28 2 28 -5 0 -10 -4 -10 -10z"/>
<path d="M555 1920 c-8 -13 9 -20 24 -11 10 6 9 10 -3 14 -8 3 -18 2 -21 -3z"/>
<path d="M3038 1873 c-10 -2 -18 -9 -18 -14 0 -6 7 -6 18 -1 9 5 24 12 32 15
13 5 13 5 0 5 -8 0 -23 -2 -32 -5z"/>
<path d="M426 1855 c-3 -9 -6 -22 -5 -28 0 -7 5 -1 10 12 5 13 8 26 5 28 -2 2
-6 -3 -10 -12z"/>
<path d="M1740 1854 c0 -8 5 -12 10 -9 6 3 10 10 10 16 0 5 -4 9 -10 9 -5 0
-10 -7 -10 -16z"/>
<path d="M587 1853 c-4 -3 -7 -11 -7 -17 0 -6 5 -5 12 2 6 6 9 14 7 17 -3 3
-9 2 -12 -2z"/>
<path d="M3075 1850 c-3 -5 -1 -10 4 -10 6 0 11 5 11 10 0 6 -2 10 -4 10 -3 0
-8 -4 -11 -10z"/>
<path d="M2135 1790 c-3 -5 1 -10 9 -10 9 0 16 5 16 10 0 6 -4 10 -9 10 -6 0
-13 -4 -16 -10z"/>
<path d="M2980 1790 c0 -5 5 -10 11 -10 5 0 7 5 4 10 -3 6 -8 10 -11 10 -2 0
-4 -4 -4 -10z"/>
<path d="M2465 1780 c3 -5 8 -10 11 -10 2 0 4 5 4 10 0 6 -5 10 -11 10 -5 0
-7 -4 -4 -10z"/>
<path d="M3235 1780 c3 -5 8 -10 11 -10 2 0 4 5 4 10 0 6 -5 10 -11 10 -5 0
-7 -4 -4 -10z"/>
<path d="M1040 1764 c0 -14 3 -14 15 -4 8 7 15 14 15 16 0 2 -7 4 -15 4 -8 0
-15 -7 -15 -16z"/>
<path d="M3030 1751 c0 -5 5 -13 10 -16 6 -3 10 -2 10 4 0 5 -4 13 -10 16 -5
3 -10 2 -10 -4z"/>
<path d="M1730 1720 c19 -13 30 -13 30 0 0 6 -10 10 -22 10 -19 0 -20 -2 -8
-10z"/>
<path d="M2786 1713 c-11 -11 -6 -23 9 -23 8 0 15 4 15 9 0 13 -16 22 -24 14z"/>
<path d="M980 1679 c0 -5 5 -7 10 -4 6 3 10 8 10 11 0 2 -4 4 -10 4 -5 0 -10
-5 -10 -11z"/>
<path d="M2945 1650 c3 -5 1 -10 -4 -10 -6 0 -11 -7 -11 -15 0 -9 9 -15 22
-15 16 0 19 3 11 11 -6 6 -9 18 -6 25 3 8 0 14 -7 14 -6 0 -8 -4 -5 -10z"/>
<path d="M925 1640 c-3 -6 1 -13 10 -16 19 -8 30 0 20 15 -8 14 -22 14 -30 1z"/>
<path d="M988 1643 c-24 -6 -23 -23 2 -23 14 0 21 -7 22 -22 2 -37 -5 -79 -17
-98 -3 -6 -2 -10 4 -10 6 0 8 -7 5 -15 -4 -8 -1 -15 5 -15 6 0 11 11 11 23 0
13 3 27 8 31 7 8 9 13 11 45 1 14 10 21 34 24 l32 4 -31 1 c-25 2 -34 8 -44
32 -7 17 -15 29 -19 29 -3 -1 -14 -3 -23 -6z"/>
<path d="M1740 1640 c0 -5 5 -10 10 -10 6 0 10 5 10 10 0 6 -4 10 -10 10 -5 0
-10 -4 -10 -10z"/>
<path d="M600 1630 c-13 -8 -12 -10 3 -10 9 0 17 5 17 10 0 12 -1 12 -20 0z"/>
<path d="M1119 1614 c-12 -14 -11 -16 5 -13 11 2 21 10 24 17 5 17 -13 15 -29
-4z"/>
<path d="M575 1600 c-3 -5 -1 -10 4 -10 6 0 11 5 11 10 0 6 -2 10 -4 10 -3 0
-8 -4 -11 -10z"/>
<path d="M1226 1595 c4 -8 10 -15 15 -15 5 0 9 -9 9 -20 0 -18 32 -45 42 -34
13 13 -7 56 -33 69 -35 19 -40 19 -33 0z"/>
<path d="M2980 1601 c0 -5 6 -11 13 -14 8 -3 6 -10 -8 -21 -19 -14 -19 -15 -2
-16 17 0 47 22 47 34 0 3 -7 6 -15 6 -8 0 -15 5 -15 10 0 6 -4 10 -10 10 -5 0
-10 -4 -10 -9z"/>
<path d="M1594 1586 c-3 -8 -1 -23 4 -33 10 -16 12 -15 21 10 14 36 14 37 -4
37 -9 0 -18 -6 -21 -14z"/>
<path d="M1135 1580 c-3 -5 -1 -10 4 -10 6 0 11 5 11 10 0 6 -2 10 -4 10 -3 0
-8 -4 -11 -10z"/>
<path d="M950 1570 c-8 -5 -10 -10 -5 -10 6 0 17 5 25 10 8 5 11 10 5 10 -5 0
-17 -5 -25 -10z"/>
<path d="M1199 1552 c-3 -20 -2 -29 4 -23 5 5 7 19 5 32 -3 20 -5 19 -9 -9z"/>
<path d="M165 1557 c-58 -33 -174 -127 -157 -127 5 0 19 11 32 25 13 14 43 35
66 47 45 22 105 68 89 67 -5 -1 -19 -6 -30 -12z"/>
<path d="M515 1553 c-22 -9 -54 -16 -71 -17 -42 -2 -62 -21 -70 -65 -3 -20
-14 -47 -23 -61 -10 -14 -21 -37 -24 -52 -4 -15 -14 -34 -23 -42 -8 -9 -16
-26 -16 -38 -1 -29 -36 -148 -47 -162 -9 -11 -74 -216 -93 -291 -6 -22 -14
-56 -19 -77 -6 -24 -20 -43 -42 -57 l-32 -21 27 0 c20 0 25 -4 22 -17 -2 -10
-6 -33 -7 -52 -3 -46 -44 -79 -77 -61 -22 12 -22 11 -16 -42 3 -29 6 -58 7
-65 1 -6 13 -14 27 -18 16 -4 22 -11 18 -20 -6 -17 10 -20 20 -4 3 6 1 16 -5
22 -28 28 3 73 68 100 31 13 32 15 15 28 -11 8 -25 24 -32 37 -10 19 -10 23 3
28 12 5 13 10 4 20 -6 7 -7 19 -3 26 5 7 9 20 9 28 0 8 11 20 25 27 24 12 25
13 3 13 -24 0 -31 14 -13 25 6 4 8 10 6 14 -9 13 41 188 67 236 5 11 12 29 13
40 9 56 70 205 85 205 6 0 8 7 5 16 -6 17 7 48 32 77 9 10 17 33 18 51 1 54
35 110 67 114 15 2 27 8 27 13 0 14 43 28 106 35 50 5 56 4 61 -15 5 -20 6
-20 19 -4 13 17 15 17 28 -1 8 -10 19 -15 25 -12 5 3 15 0 23 -7 7 -8 25 -20
38 -27 24 -12 24 -11 -4 18 -21 23 -25 33 -15 36 8 2 30 8 49 14 30 9 21 10
-55 9 -49 -1 -112 2 -140 5 -34 4 -62 1 -90 -9z m-440 -1029 c-9 -9 -19 -13
-23 -10 -3 4 0 11 8 16 24 15 33 11 15 -6z"/>
<path d="M875 1560 l-30 -8 30 -1 c17 0 37 4 45 9 13 9 13 10 0 9 -8 -1 -28
-5 -45 -9z"/>
<path d="M2895 1552 c-11 -9 -19 -25 -17 -34 2 -13 -3 -18 -17 -18 -12 0 -21
-4 -21 -8 0 -4 9 -8 21 -8 14 0 22 8 26 28 3 15 11 28 18 28 6 0 12 7 12 15 0
8 -1 15 -1 15 -1 -1 -10 -8 -21 -18z"/>
<path d="M2825 1520 c-3 -5 -1 -10 4 -10 6 0 11 5 11 10 0 6 -2 10 -4 10 -3 0
-8 -4 -11 -10z"/>
<path d="M1200 1484 c0 -8 5 -12 10 -9 6 4 8 11 5 16 -9 14 -15 11 -15 -7z"/>
<path d="M556 1474 c-4 -9 -4 -19 -1 -22 2 -3 7 3 11 12 4 9 4 19 1 22 -2 3
-7 -3 -11 -12z"/>
<path d="M2897 1479 c7 -7 15 -10 18 -7 3 3 -2 9 -12 12 -14 6 -15 5 -6 -5z"/>
<path d="M2876 1443 c-6 -14 -5 -15 5 -6 7 7 10 15 7 18 -3 3 -9 -2 -12 -12z"/>
<path d="M865 1410 c-3 -5 -1 -10 4 -10 6 0 11 5 11 10 0 6 -2 10 -4 10 -3 0
-8 -4 -11 -10z"/>
<path d="M665 1390 c-3 -5 -2 -17 3 -26 6 -11 11 -13 16 -5 4 6 2 11 -4 11 -7
0 -10 7 -6 15 6 17 0 20 -9 5z"/>
<path d="M897 1383 c-12 -12 -7 -22 8 -17 8 4 15 10 15 15 0 11 -14 12 -23 2z"/>
<path d="M110 1350 c0 -13 11 -13 30 0 12 8 11 10 -7 10 -13 0 -23 -4 -23 -10z"/>
<path d="M498 1343 c6 -2 12 -11 12 -19 0 -8 6 -11 16 -7 10 4 17 -2 21 -16 3
-12 12 -21 20 -19 21 5 18 22 -6 33 -11 5 -21 15 -21 22 0 8 -12 13 -27 12
-16 0 -22 -3 -15 -6z"/>
<path d="M20 1320 c-8 -5 -10 -10 -5 -10 6 0 17 5 25 10 8 5 11 10 5 10 -5 0
-17 -5 -25 -10z"/>
<path d="M2796 1317 c3 -10 9 -15 12 -12 3 3 0 11 -7 18 -10 9 -11 8 -5 -6z"/>
<path d="M1000 1286 c0 -9 5 -16 10 -16 6 0 10 4 10 9 0 6 -4 13 -10 16 -5 3
-10 -1 -10 -9z"/>
<path d="M500 1214 c0 -8 5 -12 10 -9 6 4 8 11 5 16 -9 14 -15 11 -15 -7z"/>
<path d="M40 1210 c0 -5 5 -10 10 -10 6 0 10 5 10 10 0 6 -4 10 -10 10 -5 0
-10 -4 -10 -10z"/>
<path d="M2630 1199 c0 -11 5 -17 10 -14 6 3 10 13 10 21 0 8 -4 14 -10 14 -5
0 -10 -9 -10 -21z"/>
<path d="M1280 1144 c-22 -20 -40 -31 -40 -24 0 7 -8 9 -22 4 -13 -4 -34 -8
-46 -10 -33 -4 -40 -14 -10 -14 21 0 38 -16 38 -34 0 -2 -20 -11 -44 -20 -25
-9 -50 -24 -56 -32 -11 -12 -7 -14 24 -14 27 0 44 8 68 30 24 23 34 27 44 19
11 -9 16 -5 24 15 5 15 18 29 27 33 35 13 73 47 73 65 0 29 -36 21 -80 -18z
m-55 -44 c-3 -5 -11 -10 -16 -10 -6 0 -7 5 -4 10 3 6 11 10 16 10 6 0 7 -4 4
-10z"/>
<path d="M1400 1168 c-24 -11 -23 -12 20 -19 25 -4 57 -11 73 -14 37 -10 35
10 -3 30 -34 17 -55 18 -90 3z"/>
<path d="M660 1158 c0 -20 18 -23 40 -7 12 9 12 10 -4 5 -11 -4 -23 -1 -28 6
-6 10 -8 8 -8 -4z"/>
<path d="M468 1112 c-10 -2 -18 -8 -18 -13 0 -13 27 -11 35 2 9 13 4 16 -17
11z"/>
<path d="M2030 1100 c0 -5 5 -10 10 -10 6 0 10 5 10 10 0 6 -4 10 -10 10 -5 0
-10 -4 -10 -10z"/>
<path d="M58 1086 c-10 -7 -18 -15 -18 -18 0 -15 40 -48 59 -48 12 0 21 -6 21
-15 0 -15 35 -21 43 -7 10 15 -12 52 -28 46 -10 -4 -15 0 -15 13 0 21 -18 43
-34 43 -6 0 -19 -7 -28 -14z"/>
<path d="M1080 1090 c0 -13 11 -13 30 0 12 8 11 10 -7 10 -13 0 -23 -4 -23
-10z"/>
<path d="M805 1038 c-90 -23 -93 -24 -78 -39 7 -7 27 -4 64 10 30 11 72 22 94
24 42 4 55 20 20 24 -11 1 -56 -7 -100 -19z"/>
<path d="M644 982 c-5 -4 -21 -23 -34 -42 -20 -29 -21 -32 -4 -17 11 9 25 17
31 17 6 0 13 10 16 22 7 26 5 30 -9 20z"/>
<path d="M440 959 c-7 -11 -10 -23 -7 -25 2 -2 9 7 15 21 14 30 7 33 -8 4z"/>
<path d="M1216 951 c-3 -4 6 -6 19 -3 14 2 25 6 25 8 0 8 -39 4 -44 -5z"/>
<path d="M539 946 c-2 -3 -17 -7 -33 -10 -16 -3 -33 -11 -37 -17 -4 -7 -16 -9
-28 -6 -12 3 -24 1 -27 -5 -3 -5 -18 -14 -32 -19 l-26 -10 24 -12 c21 -10 27
-10 41 4 9 9 42 24 72 33 30 9 57 23 61 31 5 14 -5 21 -15 11z"/>
<path d="M877 874 c-43 -19 -86 -42 -95 -53 -10 -10 -55 -45 -102 -76 -47 -32
-100 -73 -118 -91 -38 -39 -62 -44 -62 -13 0 15 -4 19 -16 15 -9 -3 -20 -6
-26 -6 -6 0 -8 -14 -4 -36 10 -48 -6 -66 -51 -58 -20 4 -38 3 -42 -2 -3 -5
-19 -15 -34 -22 -16 -7 -25 -17 -21 -23 3 -6 9 -7 13 -3 3 5 13 11 21 13 55
13 55 13 26 -12 -16 -14 -34 -23 -41 -21 -6 3 -17 -7 -25 -21 -14 -26 -36 -35
-27 -11 4 10 -3 14 -29 14 -19 0 -34 -4 -34 -8 0 -4 -11 -11 -25 -14 -29 -7
-53 -48 -53 -90 1 -32 -32 -66 -62 -66 -29 0 -70 -39 -70 -67 l0 -25 44 36
c24 20 50 36 56 36 6 0 23 14 37 30 13 17 29 30 34 30 6 0 20 9 32 21 32 30
94 69 111 69 8 0 28 16 43 35 30 38 71 70 80 61 3 -2 1 -11 -3 -18 -5 -7 -9
-20 -11 -28 -1 -8 -7 -16 -12 -18 -6 -2 -11 -11 -11 -20 0 -14 2 -14 9 -3 7
11 10 10 14 -5 4 -17 5 -17 6 2 0 11 8 29 16 40 8 10 15 34 15 52 0 22 6 35
17 39 10 4 34 23 53 42 62 63 142 126 176 139 18 8 49 28 67 46 41 38 126 82
180 91 30 6 35 10 26 21 -14 17 -9 19 -102 -22z"/>
<path d="M400 821 c-14 -3 -50 -20 -80 -37 -30 -18 -73 -38 -95 -45 -37 -13
-38 -14 -13 -17 20 -2 25 -7 21 -20 -8 -23 7 -8 21 20 7 14 22 24 39 26 15 2
27 9 27 17 0 13 67 45 95 45 7 0 17 5 20 10 7 11 3 11 -35 1z"/>
<path d="M580 750 c-8 -5 -11 -12 -7 -16 4 -4 13 -2 19 4 15 15 7 24 -12 12z"/>
<path d="M630 660 c0 -5 5 -10 11 -10 5 0 7 5 4 10 -3 6 -8 10 -11 10 -2 0 -4
-4 -4 -10z"/>
<path d="M12 648 c-13 -13 -16 -38 -4 -37 16 1 46 18 33 18 -7 1 -11 7 -7 16
7 18 -5 20 -22 3z"/>
<path d="M515 439 c-3 -4 4 -10 15 -14 11 -3 27 -13 35 -22 16 -15 45 -12 45
6 0 12 -89 41 -95 30z"/>
<path d="M0 370 c0 -5 5 -10 10 -10 6 0 10 5 10 10 0 6 -4 10 -10 10 -5 0 -10
-4 -10 -10z"/>
<path d="M640 340 c0 -5 5 -10 11 -10 5 0 7 5 4 10 -3 6 -8 10 -11 10 -2 0 -4
-4 -4 -10z"/>
<path d="M395 250 c-3 -5 1 -10 10 -10 9 0 13 5 10 10 -3 6 -8 10 -10 10 -2 0
-7 -4 -10 -10z"/>
<path d="M176 223 c-6 -14 -5 -15 5 -6 7 7 10 15 7 18 -3 3 -9 -2 -12 -12z"/>
<path d="M333 200 c-10 -26 -8 -31 14 -45 18 -12 28 -13 37 -6 10 8 20 6 40
-10 l27 -21 -7 28 c-9 39 -20 50 -38 35 -8 -7 -25 -9 -40 -5 -29 7 -34 19 -11
28 18 7 20 26 2 26 -7 0 -18 -13 -24 -30z"/>
<path d="M867 160 c-5 -21 7 -27 19 -9 3 6 17 8 31 4 23 -5 24 -4 10 10 -22
21 -54 19 -60 -5z"/>
<path d="M170 163 c0 -5 5 -15 10 -23 7 -12 12 -12 22 -2 10 10 10 15 -2 22
-18 12 -30 13 -30 3z"/>
<path d="M577 153 c-15 -14 -6 -33 17 -33 19 0 23 -5 21 -25 -3 -23 -1 -24 46
-21 27 1 55 8 61 14 9 9 9 12 -3 12 -7 0 -20 4 -28 9 -12 8 -12 12 -2 24 9 12
9 17 0 23 -7 4 -15 2 -17 -4 -5 -15 -38 -16 -47 -2 -7 11 -38 13 -48 3z"/>
<path d="M85 130 c4 -6 11 -8 16 -5 14 9 11 15 -7 15 -8 0 -12 -5 -9 -10z"/>
<path d="M116 110 c-7 -17 -16 -27 -21 -23 -4 5 -5 3 -2 -3 3 -6 7 -27 9 -47
1 -21 5 -37 8 -37 4 0 20 16 35 35 41 49 155 73 138 30 -3 -8 -18 -15 -33 -15
-16 0 -32 -5 -36 -12 -5 -8 3 -9 32 -4 21 4 59 7 83 6 36 -1 42 2 38 14 -5 12
0 16 16 16 18 0 19 -2 7 -10 -11 -7 -7 -10 18 -10 18 0 32 -5 32 -12 0 -8 3
-8 9 -2 12 12 2 61 -14 68 -7 2 -25 -2 -40 -10 -15 -8 -38 -14 -51 -14 -13 0
-24 -4 -24 -10 0 -20 -19 -10 -22 12 -4 32 -46 33 -102 3 -26 -14 -51 -23 -56
-20 -5 3 -6 21 -3 40 7 43 -4 45 -21 5z"/>
<path d="M1077 104 c-17 -35 -17 -35 3 -29 12 4 20 2 20 -5 0 -6 4 -9 9 -5 5
3 15 0 23 -7 7 -7 22 -14 33 -16 15 -2 11 3 -12 18 -17 12 -36 34 -42 50 -5
17 -11 30 -13 30 -2 0 -11 -16 -21 -36z"/>
<path d="M775 120 c-3 -5 1 -10 9 -10 9 0 16 5 16 10 0 6 -4 10 -9 10 -6 0
-13 -4 -16 -10z"/>
<path d="M1030 120 c0 -5 5 -10 10 -10 6 0 10 5 10 10 0 6 -4 10 -10 10 -5 0
-10 -4 -10 -10z"/>
<path d="M514 103 c-20 -21 -18 -23 16 -10 17 6 30 14 30 18 0 11 -32 6 -46
-8z"/>
<path d="M1133 15 c0 -8 6 -15 13 -15 8 0 11 6 8 15 -8 19 -21 19 -21 0z"/>
</g>
</svg>
